<?xml version="1.0" encoding="UTF-8" standalone="no"?>
<!-- Created with sK1/UniConvertor (http://sk1project.org/) -->

<svg
   xmlns:dc="http://purl.org/dc/elements/1.1/"
   xmlns:cc="http://creativecommons.org/ns#"
   xmlns:rdf="http://www.w3.org/1999/02/22-rdf-syntax-ns#"
   xmlns:svg="http://www.w3.org/2000/svg"
   xmlns="http://www.w3.org/2000/svg"
   xmlns:sodipodi="http://sodipodi.sourceforge.net/DTD/sodipodi-0.dtd"
   xmlns:inkscape="http://www.inkscape.org/namespaces/inkscape"
   width="937.5"
   height="937.5"
   viewBox="0 0 750.00003 750"
   id="svg3939"
   version="1.1"
   inkscape:version="0.48.4 r9939"
   sodipodi:docname="cambio de atributo.cdr"
   style="fill-rule:evenodd">
  <metadata
     id="metadata3951">
    <rdf:RDF>
      <cc:Work
         rdf:about="">
        <dc:format>image/svg+xml</dc:format>
        <dc:type
           rdf:resource="http://purl.org/dc/dcmitype/StillImage" />
        <dc:title></dc:title>
      </cc:Work>
    </rdf:RDF>
  </metadata>
  <defs
     id="defs3949" />
  <sodipodi:namedview
     pagecolor="#ffffff"
     bordercolor="#666666"
     borderopacity="1"
     objecttolerance="10"
     gridtolerance="10"
     guidetolerance="10"
     inkscape:pageopacity="0"
     inkscape:pageshadow="2"
     inkscape:window-width="640"
     inkscape:window-height="480"
     id="namedview3947"
     showgrid="false"
     units="pt"
     inkscape:document-units="pt"
     inkscape:zoom="0.22425732"
     inkscape:cx="372.04749"
     inkscape:cy="526.18127"
     inkscape:window-x="0"
     inkscape:window-y="0"
     inkscape:window-maximized="0"
     inkscape:current-layer="svg3939" />
  <g
     id="g3941"
     transform="translate(0,-91.889992)">
    <g
       id="g3943">
      <path
         style="fill:#2c2c2b;stroke:none"
         d="m 296.937,124.518 53.033,-0.111 -0.453,318.661 -229.634,0.061 -0.094,-50.827 16.818,-0.001 0.016,31.129 195.205,-0.001 -0.335,-280.375 c -11.091,0 -23.487,0.18 -34.577,0.18 l 0.021,-18.716 z m 154.622,684.744 -53.032,0.111 0.452,-318.661 229.634,-0.061 0.095,50.826 -16.818,10e-4 -0.016,-31.128 -195.206,10e-4 0.335,280.375 c 11.091,0 23.487,-0.181 34.578,-0.181 l -0.022,18.717 z m 2.105,-684.128 -53.483,-0.111 0.457,316.869 231.585,0.061 0.095,-50.541 -16.961,-10e-4 -0.016,30.953 -196.864,-10e-4 0.338,-278.798 c 11.185,0 23.686,0.179 34.871,0.179 l -0.022,-18.61 z m -157.328,683.024 53.483,0.111 -0.457,-316.87 -231.586,-0.06 -0.095,50.54 16.961,10e-4 0.016,-30.953 196.865,10e-4 -0.338,278.798 c -11.185,0 -23.686,-0.179 -34.872,-0.179 l 0.023,18.611 z"
         id="path3945"
         inkscape:connector-curvature="0" />
    </g>
  </g>
</svg>
