<?xml version="1.0" encoding="UTF-8" standalone="no"?>
<!-- Created with sK1/UniConvertor (http://sk1project.org/) -->

<svg
   xmlns:dc="http://purl.org/dc/elements/1.1/"
   xmlns:cc="http://creativecommons.org/ns#"
   xmlns:rdf="http://www.w3.org/1999/02/22-rdf-syntax-ns#"
   xmlns:svg="http://www.w3.org/2000/svg"
   xmlns="http://www.w3.org/2000/svg"
   xmlns:sodipodi="http://sodipodi.sourceforge.net/DTD/sodipodi-0.dtd"
   xmlns:inkscape="http://www.inkscape.org/namespaces/inkscape"
   width="937.5"
   height="937.5"
   viewBox="0 0 750.00003 750"
   id="svg5523"
   version="1.1"
   inkscape:version="0.48.4 r9939"
   sodipodi:docname="casa de cambio.cdr"
   style="fill-rule:evenodd">
  <metadata
     id="metadata5535">
    <rdf:RDF>
      <cc:Work
         rdf:about="">
        <dc:format>image/svg+xml</dc:format>
        <dc:type
           rdf:resource="http://purl.org/dc/dcmitype/StillImage" />
        <dc:title></dc:title>
      </cc:Work>
    </rdf:RDF>
  </metadata>
  <defs
     id="defs5533" />
  <sodipodi:namedview
     pagecolor="#ffffff"
     bordercolor="#666666"
     borderopacity="1"
     objecttolerance="10"
     gridtolerance="10"
     guidetolerance="10"
     inkscape:pageopacity="0"
     inkscape:pageshadow="2"
     inkscape:window-width="640"
     inkscape:window-height="480"
     id="namedview5531"
     showgrid="false"
     inkscape:document-units="pt"
     units="pt"
     inkscape:zoom="0.22425732"
     inkscape:cx="372.04749"
     inkscape:cy="526.18127"
     inkscape:window-x="0"
     inkscape:window-y="0"
     inkscape:window-maximized="0"
     inkscape:current-layer="svg5523" />
  <g
     id="g5525"
     transform="translate(0,-91.889992)">
    <g
       id="g5527">
      <path
         style="fill:#2c2c2b;stroke:none"
         d="m 337.574,378.376 18.934,5.262 c -3.959,17.028 -11.114,30.036 -21.397,39.025 -10.315,8.952 -22.894,13.41 -37.802,13.41 -15.408,0 -27.92,-3.435 -37.57,-10.304 -9.65,-6.906 -17.005,-16.882 -22.03,-29.927 -2.874,-7.483 -4.932,-15.278 -6.166,-23.383 l -22.04,0 0,-11.682 20.842,0 c -0.126,-2.319 -0.189,-4.662 -0.189,-7.029 0,-2.916 0.091,-5.765 0.271,-8.547 l -27.738,0 0,-11.682 29.091,0 c 1.396,-8.168 3.692,-15.675 6.895,-22.523 5.69,-12.168 13.776,-21.413 24.292,-27.734 10.482,-6.322 22.029,-9.464 34.641,-9.464 14.309,0 26.322,3.983 36.073,11.985 9.75,8.002 16.538,19.22 20.365,33.727 l -18.602,4.823 c -3.328,-11.437 -8.12,-19.732 -14.442,-24.957 -6.29,-5.225 -14.209,-7.82 -23.793,-7.82 -10.982,0 -20.133,2.887 -27.52,8.66 -7.388,5.81 -12.579,13.557 -15.541,23.313 -1.014,3.293 -1.857,6.623 -2.528,9.99 l 84.44,0 0,11.682 -86.066,0 c -0.226,2.79 -0.338,5.603 -0.338,8.437 0,2.438 0.059,4.817 0.176,7.139 l 74.546,0 0,11.682 -73.39,0 c 0.882,5.8 2.202,11.178 3.959,16.148 3.561,9.939 9.051,17.393 16.539,22.326 7.487,4.933 15.573,7.382 24.292,7.382 10.582,0 19.533,-3.362 26.888,-10.049 7.354,-6.723 12.312,-16.699 14.908,-29.89 z m 133.302,291.003 0,-21.457 c -10.749,-1.344 -19.462,-3.746 -26.18,-7.207 -6.718,-3.46 -12.54,-9.079 -17.426,-16.774 -4.886,-7.736 -7.736,-17.142 -8.51,-28.257 l 21.579,-4.071 c 1.67,11.522 4.601,19.991 8.836,25.406 6.025,7.654 13.273,11.889 21.701,12.744 l 0,-68.321 c -8.835,-1.669 -17.834,-5.089 -27.076,-10.26 -6.84,-3.827 -12.092,-9.12 -15.797,-15.879 -3.706,-6.759 -5.538,-14.413 -5.538,-23.004 0,-15.269 5.415,-27.646 16.205,-37.092 7.247,-6.393 17.996,-10.26 32.206,-11.685 l 0,-10.261 12.663,0 0,10.261 c 12.458,1.18 22.393,4.845 29.681,10.952 9.405,7.777 15.024,18.485 16.938,32.084 l -22.19,3.339 c -1.262,-8.428 -3.909,-14.902 -7.94,-19.381 -3.99,-4.479 -9.486,-7.451 -16.489,-8.876 l 0,61.887 c 10.789,2.728 17.955,4.845 21.456,6.352 6.678,2.932 12.134,6.515 16.327,10.708 4.235,4.235 7.492,9.243 9.731,15.024 2.28,5.822 3.42,12.093 3.42,18.852 0,14.901 -4.763,27.279 -14.209,37.213 -9.446,9.976 -21.702,15.269 -36.725,16.002 l 0,21.701 -12.663,0 z m 0,-187.983 c -8.347,1.262 -14.943,4.601 -19.747,10.016 -4.804,5.415 -7.207,11.807 -7.207,19.217 0,7.288 2.036,13.437 6.148,18.363 4.113,4.927 11.034,8.876 20.806,11.808 l 0,-59.404 z m 12.663,148.367 c 8.346,-1.018 15.227,-4.642 20.683,-10.83 5.456,-6.189 8.184,-13.885 8.184,-23.045 0,-7.777 -1.955,-14.047 -5.782,-18.77 -3.868,-4.723 -11.563,-8.958 -23.085,-12.704 l 0,65.349 z M 515.082,311.128 535.821,332.325 248.155,613.776 227.416,592.579 515.082,311.128 z M 375,203.366 c 145.54,0 263.523,117.984 263.523,263.524 C 638.523,612.43 520.54,730.414 375,730.414 229.459,730.414 111.476,612.43 111.476,466.89 111.476,321.35 229.459,203.366 375,203.366 z m 0,-30.476 c 162.372,0 294,131.628 294,294 0,162.372 -131.628,294 -294,294 -162.372,0 -294.0003,-131.628 -294.0003,-294 0,-162.372 131.6283,-294 294.0003,-294 z"
         id="path5529"
         inkscape:connector-curvature="0" />
    </g>
  </g>
</svg>
