<?xml version="1.0" encoding="UTF-8" standalone="no"?>
<!-- Created with sK1/UniConvertor (http://sk1project.org/) -->

<svg
   xmlns:dc="http://purl.org/dc/elements/1.1/"
   xmlns:cc="http://creativecommons.org/ns#"
   xmlns:rdf="http://www.w3.org/1999/02/22-rdf-syntax-ns#"
   xmlns:svg="http://www.w3.org/2000/svg"
   xmlns="http://www.w3.org/2000/svg"
   xmlns:sodipodi="http://sodipodi.sourceforge.net/DTD/sodipodi-0.dtd"
   xmlns:inkscape="http://www.inkscape.org/namespaces/inkscape"
   width="937.5"
   height="937.5"
   viewBox="0 0 750.00003 750"
   id="svg4083"
   version="1.1"
   inkscape:version="0.48.4 r9939"
   sodipodi:docname="cementerio.cdr"
   style="fill-rule:evenodd">
  <metadata
     id="metadata4095">
    <rdf:RDF>
      <cc:Work
         rdf:about="">
        <dc:format>image/svg+xml</dc:format>
        <dc:type
           rdf:resource="http://purl.org/dc/dcmitype/StillImage" />
        <dc:title></dc:title>
      </cc:Work>
    </rdf:RDF>
  </metadata>
  <defs
     id="defs4093" />
  <sodipodi:namedview
     pagecolor="#ffffff"
     bordercolor="#666666"
     borderopacity="1"
     objecttolerance="10"
     gridtolerance="10"
     guidetolerance="10"
     inkscape:pageopacity="0"
     inkscape:pageshadow="2"
     inkscape:window-width="640"
     inkscape:window-height="480"
     id="namedview4091"
     showgrid="false"
     inkscape:document-units="pt"
     units="pt"
     inkscape:zoom="0.22425732"
     inkscape:cx="372.04749"
     inkscape:cy="526.18127"
     inkscape:window-x="0"
     inkscape:window-y="0"
     inkscape:window-maximized="0"
     inkscape:current-layer="svg4083" />
  <g
     id="g4085"
     transform="translate(0,-91.889992)">
    <g
       id="g4087">
      <path
         style="fill:#2c2c2b;stroke:none"
         d="m 22.4598,311.439 705.0792,0 0,310.902 -705.0792,0 0,-310.902 z m 9.9513,8.777 685.1769,0 0,293.349 -685.1769,0 0,-293.349 z m 155.1859,44.309 12.669,0 0,98.004 99.174,0 0,14.906 -99.174,0 0,98.003 -12.669,0 0,-98.003 -99.1737,0 0,-14.906 99.1737,0 0,-98.004 z m 363.322,0 12.669,0 0,98.004 99.174,0 0,14.906 -99.174,0 0,98.003 -12.669,0 0,-98.003 -99.174,0 0,-14.906 99.174,0 0,-98.004 z"
         id="path4089"
         inkscape:connector-curvature="0" />
    </g>
  </g>
</svg>
