<?xml version="1.0" encoding="UTF-8" standalone="no"?>
<!-- Created with sK1/UniConvertor (http://sk1project.org/) -->

<svg
   xmlns:dc="http://purl.org/dc/elements/1.1/"
   xmlns:cc="http://creativecommons.org/ns#"
   xmlns:rdf="http://www.w3.org/1999/02/22-rdf-syntax-ns#"
   xmlns:svg="http://www.w3.org/2000/svg"
   xmlns="http://www.w3.org/2000/svg"
   xmlns:sodipodi="http://sodipodi.sourceforge.net/DTD/sodipodi-0.dtd"
   xmlns:inkscape="http://www.inkscape.org/namespaces/inkscape"
   width="937.5"
   height="937.5"
   viewBox="0 0 750.00003 750"
   id="svg3013"
   version="1.1"
   inkscape:version="0.48.4 r9939"
   sodipodi:docname="chimenea.cdr"
   style="fill-rule:evenodd">
  <metadata
     id="metadata3025">
    <rdf:RDF>
      <cc:Work
         rdf:about="">
        <dc:format>image/svg+xml</dc:format>
        <dc:type
           rdf:resource="http://purl.org/dc/dcmitype/StillImage" />
        <dc:title></dc:title>
      </cc:Work>
    </rdf:RDF>
  </metadata>
  <defs
     id="defs3023" />
  <sodipodi:namedview
     pagecolor="#ffffff"
     bordercolor="#666666"
     borderopacity="1"
     objecttolerance="10"
     gridtolerance="10"
     guidetolerance="10"
     inkscape:pageopacity="0"
     inkscape:pageshadow="2"
     inkscape:window-width="640"
     inkscape:window-height="480"
     id="namedview3021"
     showgrid="false"
     inkscape:document-units="pt"
     units="pt"
     inkscape:zoom="0.22425732"
     inkscape:cx="372.04749"
     inkscape:cy="526.18127"
     inkscape:window-x="0"
     inkscape:window-y="0"
     inkscape:window-maximized="0"
     inkscape:current-layer="svg3013" />
  <g
     id="g3015"
     transform="translate(0,-91.889992)">
    <g
       id="g3017">
      <path
         style="fill:#2c2c2b;stroke:#2c2c2b;stroke-width:0"
         d="m 294.269,424.171 73.279,0 34.664,265.562 90.158,0 0,20.101 -232.764,0 0,-4.968 -1.976,0 36.639,-280.695 z M 423.427,237.523 c -1.455,2.311 -4.584,10.935 -5.709,14.014 -3.175,8.694 -6.235,17.394 -9.594,25.938 -6.184,15.73 -13.991,32.614 -22.348,38.028 -16.334,10.582 -25.484,22.842 -39.185,55.76 l -2.509,6.029 -3.755,-4.843 2.509,-6.029 c 15.225,-36.579 26.252,-51.529 44.417,-63.297 1.005,-0.651 2.029,-1.593 3.061,-2.794 5.012,-5.833 10.078,-17.598 13.814,-27.099 3.253,-8.277 6.226,-16.745 9.302,-25.17 2.174,-5.953 5.365,-14.733 8.26,-19.331 l 3.011,-4.783 1.737,8.794 -3.011,4.783 z"
         id="path3019"
         inkscape:connector-curvature="0" />
    </g>
  </g>
</svg>
