<?xml version="1.0" encoding="UTF-8" standalone="no"?>
<!-- Created with sK1/UniConvertor (http://sk1project.org/) -->

<svg
   xmlns:dc="http://purl.org/dc/elements/1.1/"
   xmlns:cc="http://creativecommons.org/ns#"
   xmlns:rdf="http://www.w3.org/1999/02/22-rdf-syntax-ns#"
   xmlns:svg="http://www.w3.org/2000/svg"
   xmlns="http://www.w3.org/2000/svg"
   xmlns:sodipodi="http://sodipodi.sourceforge.net/DTD/sodipodi-0.dtd"
   xmlns:inkscape="http://www.inkscape.org/namespaces/inkscape"
   width="937.5"
   height="937.5"
   viewBox="0 0 750.00003 750"
   id="svg3931"
   version="1.1"
   inkscape:version="0.48.4 r9939"
   sodipodi:docname="dorado.cdr"
   style="fill-rule:evenodd">
  <metadata
     id="metadata3947">
    <rdf:RDF>
      <cc:Work
         rdf:about="">
        <dc:format>image/svg+xml</dc:format>
        <dc:type
           rdf:resource="http://purl.org/dc/dcmitype/StillImage" />
        <dc:title></dc:title>
      </cc:Work>
    </rdf:RDF>
  </metadata>
  <defs
     id="defs3945" />
  <sodipodi:namedview
     pagecolor="#ffffff"
     bordercolor="#666666"
     borderopacity="1"
     objecttolerance="10"
     gridtolerance="10"
     guidetolerance="10"
     inkscape:pageopacity="0"
     inkscape:pageshadow="2"
     inkscape:window-width="705"
     inkscape:window-height="480"
     id="namedview3943"
     showgrid="false"
     units="pt"
     inkscape:document-units="pt"
     inkscape:zoom="0.22425732"
     inkscape:cx="642.01325"
     inkscape:cy="526.18127"
     inkscape:window-x="0"
     inkscape:window-y="0"
     inkscape:window-maximized="0"
     inkscape:current-layer="svg3931" />
  <g
     id="g3933"
     transform="matrix(0.34571341,0,0,0.39382155,8.7915682,464.36095)">
    <g
       id="g3935">
      <path
         style="fill:#2c2c2b;stroke:#2c2c2b;stroke-width:0"
         d="m 120.968,197.83 1884.052,0 4.12,-829.655 -1884.055,0 -4.117,829.655 z m -80.2699,66.576 2040.0419,0 4.55,-971.017 -2040.0501,0 -4.5418,971.017 z M 1847.94,-21.3011 l 0,-438.9079 -216.32,208.555 -213.27,-242.622 -863.871,-10e-4 L 278.04,-227.764 554.479,52.0725 1400.34,49.4447 1631.61,-229.87 1847.94,-21.3011 z M 1620.04,-239.916 1392.84,34.4818 561.12,37.0646 299.758,-227.51 l 261.16,-251.781 850.232,10e-4 208.2,236.854 1.38,1.427 -0.69,1.093 z m 22.26,-0.839 190.1,-183.273 0,366.5456 -190.1,-183.2726 z"
         id="path3937"
         inkscape:connector-curvature="0" />
      <path
         style="fill:none;stroke:#2c2c2b;stroke-width:0"
         d="m 1848.11,-21.2578 0,-439.0032 -216.36,208.601 -213.32,-242.676 -864.062,0 -276.499,266.57 276.499,279.8977 846.042,-2.6283 231.32,-279.3754 216.38,208.6142 z"
         id="path3939"
         inkscape:connector-curvature="0" />
      <path
         style="fill:#ffc70e;stroke:#2c2c2b;stroke-width:0"
         d="m 1848.11,-21.2578 0,-439.0032 -216.36,208.601 -213.32,-242.676 -864.062,0 -276.499,266.57 276.499,279.8977 846.042,-2.6283 231.32,-279.3754 216.38,208.6142 z"
         id="path3941"
         inkscape:connector-curvature="0" />
    </g>
  </g>
</svg>
