<?xml version="1.0" encoding="UTF-8" standalone="no"?>
<!-- Created with sK1/UniConvertor (http://sk1project.org/) -->

<svg
   xmlns:dc="http://purl.org/dc/elements/1.1/"
   xmlns:cc="http://creativecommons.org/ns#"
   xmlns:rdf="http://www.w3.org/1999/02/22-rdf-syntax-ns#"
   xmlns:svg="http://www.w3.org/2000/svg"
   xmlns="http://www.w3.org/2000/svg"
   xmlns:sodipodi="http://sodipodi.sourceforge.net/DTD/sodipodi-0.dtd"
   xmlns:inkscape="http://www.inkscape.org/namespaces/inkscape"
   width="937.5"
   height="937.5"
   viewBox="0 0 750.00003 750"
   id="svg4111"
   version="1.1"
   inkscape:version="0.48.4 r9939"
   sodipodi:docname="edificio residencial.cdr"
   style="fill-rule:evenodd">
  <metadata
     id="metadata4123">
    <rdf:RDF>
      <cc:Work
         rdf:about="">
        <dc:format>image/svg+xml</dc:format>
        <dc:type
           rdf:resource="http://purl.org/dc/dcmitype/StillImage" />
        <dc:title></dc:title>
      </cc:Work>
    </rdf:RDF>
  </metadata>
  <defs
     id="defs4121" />
  <sodipodi:namedview
     pagecolor="#ffffff"
     bordercolor="#666666"
     borderopacity="1"
     objecttolerance="10"
     gridtolerance="10"
     guidetolerance="10"
     inkscape:pageopacity="0"
     inkscape:pageshadow="2"
     inkscape:window-width="640"
     inkscape:window-height="480"
     id="namedview4119"
     showgrid="false"
     units="pt"
     inkscape:document-units="pt"
     inkscape:zoom="0.22425732"
     inkscape:cx="372.04749"
     inkscape:cy="526.18127"
     inkscape:window-x="0"
     inkscape:window-y="0"
     inkscape:window-maximized="0"
     inkscape:current-layer="svg4111" />
  <g
     id="g4113"
     transform="translate(0,-91.889992)">
    <g
       id="g4115">
      <path
         style="fill:#2c2c2b;stroke:none"
         d="m 204.159,292.917 341.682,0 0,77.448 -9.112,0 0,212.982 140.659,0 0,17.084 -604.7765,0 0,-17.084 136.6725,0 0,-212.982 -5.125,0 0,-77.448 z m 280.179,290.43 0,-212.982 -222.663,0 0,212.982 222.663,0 z m -264.234,0 30.751,0 0,-210.703 -30.751,0 0,210.703 z m 275.054,0 30.751,0 0,-209.565 -30.751,0 0,209.565 z m -273.915,-273.346 307.514,0 0,43.28 -307.514,0 0,-43.28 z M 5.69876,623.779 l 738.60224,0 0,17.084 -738.60224,0 0,-17.084 z"
         id="path4117"
         inkscape:connector-curvature="0" />
    </g>
  </g>
</svg>
