<?xml version="1.0" encoding="UTF-8" standalone="no"?>
<!-- Created with sK1/UniConvertor (http://sk1project.org/) -->

<svg
   xmlns:dc="http://purl.org/dc/elements/1.1/"
   xmlns:cc="http://creativecommons.org/ns#"
   xmlns:rdf="http://www.w3.org/1999/02/22-rdf-syntax-ns#"
   xmlns:svg="http://www.w3.org/2000/svg"
   xmlns="http://www.w3.org/2000/svg"
   xmlns:sodipodi="http://sodipodi.sourceforge.net/DTD/sodipodi-0.dtd"
   xmlns:inkscape="http://www.inkscape.org/namespaces/inkscape"
   width="937.5"
   height="937.5"
   viewBox="0 0 750.00003 750"
   id="svg4139"
   version="1.1"
   inkscape:version="0.48.4 r9939"
   sodipodi:docname="estacion meteorologica.cdr"
   style="fill-rule:evenodd">
  <metadata
     id="metadata4151">
    <rdf:RDF>
      <cc:Work
         rdf:about="">
        <dc:format>image/svg+xml</dc:format>
        <dc:type
           rdf:resource="http://purl.org/dc/dcmitype/StillImage" />
        <dc:title></dc:title>
      </cc:Work>
    </rdf:RDF>
  </metadata>
  <defs
     id="defs4149" />
  <sodipodi:namedview
     pagecolor="#ffffff"
     bordercolor="#666666"
     borderopacity="1"
     objecttolerance="10"
     gridtolerance="10"
     guidetolerance="10"
     inkscape:pageopacity="0"
     inkscape:pageshadow="2"
     inkscape:window-width="640"
     inkscape:window-height="480"
     id="namedview4147"
     showgrid="false"
     inkscape:document-units="pt"
     units="pt"
     inkscape:zoom="0.22425732"
     inkscape:cx="372.04749"
     inkscape:cy="526.18127"
     inkscape:window-x="0"
     inkscape:window-y="0"
     inkscape:window-maximized="0"
     inkscape:current-layer="svg4139" />
  <g
     id="g4141"
     transform="translate(0,-91.889992)">
    <g
       id="g4143">
      <path
         style="fill:#2c2c2b;stroke:none"
         d="m 69.0122,102.059 611.9748,0 0,729.662 -611.9748,0 0,-729.662 z m 16.6724,19.878 578.6304,0 0,689.906 -578.6304,0 0,-689.906 z m 144.1604,144.23 287.509,0 -41.746,-75.98 13.33,-7.324 42.109,76.641 48.246,-62.261 12.022,9.316 -57.858,74.665 -0.869,-0.673 -157.549,0 233.957,335.155 -15.177,10.595 -223.492,-322.472 0.327,478.203 -22.229,0 0,-478.314 -187.552,340.84 -16.216,-8.924 195.389,-355.083 -120.423,0 0,-0.688 -0.467,0.688 -78.153,-53.053 8.543,-12.584 66.387,45.066 40.772,-81.468 13.602,6.808 -40.462,80.847 z"
         id="path4145"
         inkscape:connector-curvature="0" />
    </g>
  </g>
</svg>
