<?xml version="1.0" encoding="UTF-8" standalone="no"?>
<!-- Created with sK1/UniConvertor (http://sk1project.org/) -->

<svg
   xmlns:dc="http://purl.org/dc/elements/1.1/"
   xmlns:cc="http://creativecommons.org/ns#"
   xmlns:rdf="http://www.w3.org/1999/02/22-rdf-syntax-ns#"
   xmlns:svg="http://www.w3.org/2000/svg"
   xmlns="http://www.w3.org/2000/svg"
   xmlns:sodipodi="http://sodipodi.sourceforge.net/DTD/sodipodi-0.dtd"
   xmlns:inkscape="http://www.inkscape.org/namespaces/inkscape"
   width="937.5"
   height="937.5"
   viewBox="0 0 750.00003 750"
   id="svg3923"
   version="1.1"
   inkscape:version="0.48.4 r9939"
   sodipodi:docname="farmacia.cdr"
   style="fill-rule:evenodd">
  <metadata
     id="metadata3937">
    <rdf:RDF>
      <cc:Work
         rdf:about="">
        <dc:format>image/svg+xml</dc:format>
        <dc:type
           rdf:resource="http://purl.org/dc/dcmitype/StillImage" />
        <dc:title></dc:title>
      </cc:Work>
    </rdf:RDF>
  </metadata>
  <defs
     id="defs3935" />
  <sodipodi:namedview
     pagecolor="#ffffff"
     bordercolor="#666666"
     borderopacity="1"
     objecttolerance="10"
     gridtolerance="10"
     guidetolerance="10"
     inkscape:pageopacity="0"
     inkscape:pageshadow="2"
     inkscape:window-width="640"
     inkscape:window-height="480"
     id="namedview3933"
     showgrid="false"
     inkscape:document-units="pt"
     units="pt"
     inkscape:zoom="0.22425732"
     inkscape:cx="372.04749"
     inkscape:cy="526.18127"
     inkscape:window-x="0"
     inkscape:window-y="0"
     inkscape:window-maximized="0"
     inkscape:current-layer="svg3923" />
  <g
     id="g3925"
     transform="translate(0,-91.889992)">
    <g
       id="g3927">
      <path
         style="fill:#2c2c2b;stroke:none"
         d="m 375,124.595 c 189.044,0 342.295,153.251 342.295,342.295 C 717.295,655.934 564.044,809.185 375,809.185 185.956,809.185 32.705,655.934 32.705,466.89 32.705,277.846 185.956,124.595 375,124.595 z m 0,17.517 c 179.369,0 324.778,145.408 324.778,324.778 C 699.778,646.26 554.369,791.669 375,791.669 195.63,791.669 50.2212,646.26 50.2212,466.89 50.2212,287.52 195.63,142.112 375,142.112 z"
         id="path3929"
         inkscape:connector-curvature="0" />
      <path
         style="fill:#009240;stroke:none"
         d="m 282.729,164.633 184.541,0 0,209.986 209.987,0 0,184.542 -209.987,0 0,209.986 -184.541,0 0,-209.986 -209.9863,0 0,-184.542 209.9863,0 0,-209.986 z"
         id="path3931"
         inkscape:connector-curvature="0" />
    </g>
  </g>
</svg>
