<?xml version="1.0" encoding="UTF-8" standalone="no"?>
<!-- Created with sK1/UniConvertor (http://sk1project.org/) -->

<svg
   xmlns:dc="http://purl.org/dc/elements/1.1/"
   xmlns:cc="http://creativecommons.org/ns#"
   xmlns:rdf="http://www.w3.org/1999/02/22-rdf-syntax-ns#"
   xmlns:svg="http://www.w3.org/2000/svg"
   xmlns="http://www.w3.org/2000/svg"
   xmlns:sodipodi="http://sodipodi.sourceforge.net/DTD/sodipodi-0.dtd"
   xmlns:inkscape="http://www.inkscape.org/namespaces/inkscape"
   width="937.5"
   height="937.5"
   viewBox="0 0 750.00003 750"
   id="svg3915"
   version="1.1"
   inkscape:version="0.48.4 r9939"
   sodipodi:docname="ganado_caprino.cdr"
   style="fill-rule:evenodd">
  <metadata
     id="metadata3929">
    <rdf:RDF>
      <cc:Work
         rdf:about="">
        <dc:format>image/svg+xml</dc:format>
        <dc:type
           rdf:resource="http://purl.org/dc/dcmitype/StillImage" />
        <dc:title></dc:title>
      </cc:Work>
    </rdf:RDF>
  </metadata>
  <defs
     id="defs3927" />
  <sodipodi:namedview
     pagecolor="#ffffff"
     bordercolor="#666666"
     borderopacity="1"
     objecttolerance="10"
     gridtolerance="10"
     guidetolerance="10"
     inkscape:pageopacity="0"
     inkscape:pageshadow="2"
     inkscape:window-width="640"
     inkscape:window-height="480"
     id="namedview3925"
     showgrid="false"
     units="pt"
     inkscape:document-units="pt"
     inkscape:zoom="0.22425732"
     inkscape:cx="372.04749"
     inkscape:cy="526.18127"
     inkscape:window-x="0"
     inkscape:window-y="0"
     inkscape:window-maximized="0"
     inkscape:current-layer="svg3915" />
  <g
     id="g3917"
     transform="translate(0,-91.889992)">
    <g
       id="g3919">
      <path
         style="fill:#d5b39f;stroke:#2c2c2b;stroke-width:0"
         d="m 142.73,372.424 c 0.551,-1.204 1.232,-2.326 2.024,-3.345 l 0.3,-0.702 0.338,-0.07 c 2.834,-3.221 6.846,-5.23 11.296,-5.23 l 0.177,0.003 4.978,-8.844 295.373,-0.679 7.772,-13.991 25.647,-9.716 50.918,-51.329 10.974,-14.34 4.285,-4.95 c 6.533,-0.453 -0.592,-6.034 7.733,-10.075 3.06,-1.484 10.379,1.173 25.979,1.543 l 2.128,1.961 11.192,21.417 18.809,18.603 15.703,26.487 14.56,12.689 6.648,3.1 c 3.707,6.355 1.584,19.316 -1.316,26.06 l -49.923,1.827 c -15.181,5.02 -27.641,4.988 -45.931,6.511 -3.373,1.811 -3.946,4.771 -5.943,5.939 -2.378,1.391 -5.985,1.488 -6.582,19.737 l -1.964,6.377 -9.425,2.687 -0.122,11.592 c -1.612,2.415 -2.834,5.776 -3.448,9.661 -3.922,2.578 -6.748,9.83 -6.748,18.374 l -1.009,-10e-4 -11.054,34.75 -3.862,3.558 -6.444,19.799 -24.485,7.385 0.778,45.276 -2.139,-0.01 0,127.483 -19.432,0 0,-127.572 -36.711,-0.168 -1.721,35.018 -4.708,95.832 -22.93,-0.389 1.555,-135.25 0.502,0.021 -0.113,-0.794 -160.497,0.154 -3.07,11.269 -2.003,4.852 -6.214,4.509 -0.37,91.795 1.234,13.58 -23.014,0.796 0.121,-13.625 -2.704,-104.12 -34.204,0.045 -21.54,65.032 -11.26,51.847 -24.661,-0.213 13.984,-56.741 -1.17,-27.205 -0.038,-129.879 c -4.675,-2.881 -7.824,-8.299 -7.824,-14.507 0,-1.471 0.178,-2.896 0.509,-4.255 l -6.233,-1.767 0.187,-7.151 c -4.4,-0.886 -8.008,-2.727 -9.2459,-6.042 -2.0166,-5.399 -8.5227,-7.781 -8.8106,-11.816 -0.2512,-3.522 0.0739,-6.008 -0.4352,-9.244 -0.3067,-1.948 -0.7971,-3.07 -0.6426,-4.937 0.3079,-3.72 0.3578,-7.194 2.7289,-10.063 2.719,-3.291 4.4771,-8.018 8.2857,-9.492 7.9637,-3.082 10.9527,-8.836 18.9627,-8.579 5.3,0.171 10.296,1.493 14.683,3.722 2.573,-2.46 5.911,-4.014 9.582,-4.2 z"
         id="path3921"
         inkscape:connector-curvature="0" />
      <path
         style="fill:#2c2c2b;stroke:#2c2c2b;stroke-width:0"
         d="m 173.998,168.259 402.003,0 c 61.067,0 111.03,49.964 111.03,111.03 l 0,375.202 c 0,61.066 -49.963,111.03 -111.03,111.03 l -402.003,0 c -61.066,0 -111.0292,-49.964 -111.0292,-111.03 l 0,-375.202 c 0,-61.066 49.9632,-111.03 111.0292,-111.03 z m 11.861,17.622 378.281,0 c 57.464,0 104.477,47.014 104.477,104.478 l 0,353.062 c 0,57.464 -47.013,104.477 -104.477,104.477 l -378.281,0 c -57.464,0 -104.4776,-47.013 -104.4776,-104.477 l 0,-353.062 c 0,-57.464 47.0136,-104.478 104.4776,-104.478 z"
         id="path3923"
         inkscape:connector-curvature="0" />
    </g>
  </g>
</svg>
