<?xml version="1.0" encoding="UTF-8" standalone="no"?>
<!-- Created with sK1/UniConvertor (http://sk1project.org/) -->

<svg
   xmlns:dc="http://purl.org/dc/elements/1.1/"
   xmlns:cc="http://creativecommons.org/ns#"
   xmlns:rdf="http://www.w3.org/1999/02/22-rdf-syntax-ns#"
   xmlns:svg="http://www.w3.org/2000/svg"
   xmlns="http://www.w3.org/2000/svg"
   xmlns:sodipodi="http://sodipodi.sourceforge.net/DTD/sodipodi-0.dtd"
   xmlns:inkscape="http://www.inkscape.org/namespaces/inkscape"
   width="937.5"
   height="937.5"
   viewBox="0 0 750.00003 750"
   id="svg3883"
   version="1.1"
   inkscape:version="0.48.4 r9939"
   sodipodi:docname="ganado_porcino.cdr"
   style="fill-rule:evenodd">
  <metadata
     id="metadata3897">
    <rdf:RDF>
      <cc:Work
         rdf:about="">
        <dc:format>image/svg+xml</dc:format>
        <dc:type
           rdf:resource="http://purl.org/dc/dcmitype/StillImage" />
        <dc:title></dc:title>
      </cc:Work>
    </rdf:RDF>
  </metadata>
  <defs
     id="defs3895" />
  <sodipodi:namedview
     pagecolor="#ffffff"
     bordercolor="#666666"
     borderopacity="1"
     objecttolerance="10"
     gridtolerance="10"
     guidetolerance="10"
     inkscape:pageopacity="0"
     inkscape:pageshadow="2"
     inkscape:window-width="640"
     inkscape:window-height="480"
     id="namedview3893"
     showgrid="false"
     inkscape:document-units="pt"
     units="pt"
     inkscape:zoom="0.22425732"
     inkscape:cx="372.04749"
     inkscape:cy="526.18127"
     inkscape:window-x="0"
     inkscape:window-y="0"
     inkscape:window-maximized="0"
     inkscape:current-layer="svg3883" />
  <g
     id="g3885"
     transform="translate(0,-91.889992)">
    <g
       id="g3887">
      <path
         style="fill:#ffacc7;stroke:#2c2c2b;stroke-width:0"
         d="m 144.984,345.76 15.386,-24.262 33.257,-2.175 5.561,-18.042 c 66.71,-0.43 145.929,-7.808 200.131,-1.288 l 11.127,6.85 c 42.078,11.847 41.527,17.789 57.317,27.074 39.846,23.43 95.069,49.729 106.272,79.016 10.205,17.985 14.85,44.31 30.615,53.956 l 6.09,44.197 18.705,14.185 c -3.759,20.415 6.674,57.471 4.441,76.015 -2.017,16.757 -12.236,10.197 -32.501,3.393 -21.145,-7.099 -27.273,-34.827 -39.088,-34.468 -59.971,1.826 -48.395,-20.391 -90.31,-36.671 l 0.548,102.15 -22.684,0.776 -0.425,-83.327 -36.37,-0.476 -1.307,80.691 -22.149,-0.414 0.007,-102.922 -151.385,-0.725 -1.733,23.609 16.222,22.8 9.497,43.82 -21.118,-2.278 -8.125,-11.071 -8.755,-24.479 -19.462,-17.838 -0.006,-34.824 -32.047,-0.134 -0.283,91.983 -19.063,0.295 -1.42,-36.392 -10.792,-11.093 -0.489,-86.127 -11.776,-1.365 -0.417,-35.531 -12.658,-4.839 1.39,-94.511 27.797,-5.558 z"
         id="path3889"
         inkscape:connector-curvature="0" />
      <path
         style="fill:#2c2c2b;stroke:#2c2c2b;stroke-width:0"
         d="m 173.998,168.259 402.003,0 c 61.067,0 111.03,49.964 111.03,111.03 l 0,375.202 c 0,61.066 -49.963,111.03 -111.03,111.03 l -402.003,0 c -61.066,0 -111.0292,-49.964 -111.0292,-111.03 l 0,-375.202 c 0,-61.066 49.9632,-111.03 111.0292,-111.03 z m 11.861,17.622 378.281,0 c 57.464,0 104.477,47.014 104.477,104.478 l 0,353.062 c 0,57.464 -47.013,104.477 -104.477,104.477 l -378.281,0 c -57.464,0 -104.4776,-47.013 -104.4776,-104.477 l 0,-353.062 c 0,-57.464 47.0136,-104.478 104.4776,-104.478 z"
         id="path3891"
         inkscape:connector-curvature="0" />
    </g>
  </g>
</svg>
