<?xml version="1.0" encoding="UTF-8" standalone="no"?>
<!-- Created with sK1/UniConvertor (http://sk1project.org/) -->

<svg
   xmlns:dc="http://purl.org/dc/elements/1.1/"
   xmlns:cc="http://creativecommons.org/ns#"
   xmlns:rdf="http://www.w3.org/1999/02/22-rdf-syntax-ns#"
   xmlns:svg="http://www.w3.org/2000/svg"
   xmlns="http://www.w3.org/2000/svg"
   xmlns:sodipodi="http://sodipodi.sourceforge.net/DTD/sodipodi-0.dtd"
   xmlns:inkscape="http://www.inkscape.org/namespaces/inkscape"
   width="937.5"
   height="937.5"
   viewBox="0 0 750.00003 750"
   id="svg3899"
   version="1.1"
   inkscape:version="0.48.4 r9939"
   sodipodi:docname="ganado_ovino.cdr"
   style="fill-rule:evenodd">
  <metadata
     id="metadata3913">
    <rdf:RDF>
      <cc:Work
         rdf:about="">
        <dc:format>image/svg+xml</dc:format>
        <dc:type
           rdf:resource="http://purl.org/dc/dcmitype/StillImage" />
        <dc:title></dc:title>
      </cc:Work>
    </rdf:RDF>
  </metadata>
  <defs
     id="defs3911" />
  <sodipodi:namedview
     pagecolor="#ffffff"
     bordercolor="#666666"
     borderopacity="1"
     objecttolerance="10"
     gridtolerance="10"
     guidetolerance="10"
     inkscape:pageopacity="0"
     inkscape:pageshadow="2"
     inkscape:window-width="640"
     inkscape:window-height="480"
     id="namedview3909"
     showgrid="false"
     units="pt"
     inkscape:document-units="pt"
     inkscape:zoom="0.22425732"
     inkscape:cx="372.04749"
     inkscape:cy="526.18127"
     inkscape:window-x="0"
     inkscape:window-y="0"
     inkscape:window-maximized="0"
     inkscape:current-layer="svg3899" />
  <g
     id="g3901"
     transform="translate(0,-91.889992)">
    <g
       id="g3903">
      <path
         style="fill:#99d9ea;stroke:#2c2c2b;stroke-width:0"
         d="m 506.887,336.766 c 1.172,-1.725 2.647,-3.196 4.341,-4.324 1.08,-2.437 2.699,-4.544 4.69,-6.146 2.778,-4.284 7.396,-7.088 12.623,-7.088 0.544,0 1.08,0.031 1.61,0.09 l 10.503,-13.725 4.24,-4.897 c 6.463,-0.449 -0.585,-5.97 7.651,-9.968 3.027,-1.469 10.268,1.16 25.702,1.527 l 2.105,1.94 11.073,21.188 18.608,18.405 15.536,26.205 14.405,12.554 6.577,3.066 c 3.668,6.288 1.568,19.111 -1.301,25.783 l -49.392,1.807 c -12.838,4.246 -23.711,4.839 -37.899,5.863 -0.125,1.537 -0.222,3.253 -0.285,5.174 l -1.943,6.309 -4.322,1.232 c 0.407,1.484 0.626,3.054 0.626,4.68 0,3.672 -1.115,7.065 -2.999,9.809 2.802,2.995 4.537,7.14 4.537,11.723 0,6.069 -3.043,11.374 -7.577,14.249 l -0.002,0.173 -0.277,0 c -1.924,1.163 -4.104,1.893 -6.427,2.069 1.26,2.398 1.979,5.167 1.979,8.118 0,8.092 -5.408,14.825 -12.55,16.253 1.613,2.615 2.553,5.751 2.553,9.124 0,8.892 -6.531,16.143 -14.717,16.517 0.069,0.636 0.106,1.283 0.106,1.939 0,8.927 -6.582,16.2 -14.814,16.521 -0.705,4.653 -3.217,8.655 -6.737,11.144 0.012,0.261 0.018,0.524 0.018,0.789 0,3.097 -0.793,5.996 -2.172,8.474 0.9,2.102 1.403,4.44 1.403,6.906 0,4.144 -1.418,7.931 -3.761,10.833 l 0.015,0.897 -0.792,-0.004 c -0.418,0.447 -0.86,0.868 -1.323,1.261 l 0,67.613 -21.015,0.895 0,-67.776 c -0.429,-0.376 0.951,-1.67 0.562,-2.093 l -0.522,-0.002 c -2.584,2.115 -5.809,3.371 -9.307,3.371 -3.546,0 -6.811,-1.29 -9.412,-3.456 l -4.139,-0.02 c -2.725,2.639 -6.332,4.246 -10.289,4.246 -0.551,0 -1.094,-0.032 -1.63,-0.093 l -1.496,30.438 -1.081,30.411 -22.685,-0.385 -2.082,-65.732 c -2.554,-0.583 -4.873,-1.848 -6.785,-3.608 -2.689,2.475 -6.18,3.97 -9.997,3.97 -4.215,0 -8.035,-1.824 -10.813,-4.777 l -2.475,0.003 c -2.816,3.844 -7.185,6.312 -12.089,6.312 -4.895,0 -9.256,-2.459 -12.073,-6.289 l -1.781,10e-4 c -2.801,3.163 -6.756,5.135 -11.139,5.135 -4.374,0 -8.321,-1.963 -11.121,-5.113 l -1.983,0.002 c -2.801,3.149 -6.747,5.111 -11.12,5.111 -4.363,0 -8.301,-1.953 -11.1,-5.09 l -2.448,0.002 c -2.619,2.223 -5.927,3.55 -9.522,3.55 -3.586,0 -6.886,-1.319 -9.501,-3.531 l -1.214,10e-4 c -2.438,1.744 -5.363,2.761 -8.511,2.761 -3.137,0 -6.055,-1.011 -8.487,-2.745 l -3.569,0.004 c -2.611,2.199 -5.901,3.51 -9.476,3.51 -1.368,0 -2.694,-0.193 -3.957,-0.554 l -2.236,8.205 -1.981,4.8 -6.148,4.462 0.854,55.951 -22.768,0.788 -2.539,-67.557 c -1.999,1.022 -4.235,1.595 -6.597,1.595 -2.8,0 -5.425,-0.804 -7.686,-2.21 l -3.33,0.004 c -2.653,2.34 -6.048,3.744 -9.747,3.744 -2.565,0 -4.983,-0.676 -7.11,-1.87 l -2.298,3.516 -17.017,61.966 -24.398,-0.211 7.575,-26.62 -7.426,-32.965 c -2.895,-3.006 -4.695,-7.222 -4.695,-11.891 0,-4.664 1.798,-8.877 4.688,-11.883 l 0,-0.163 c -2.437,-2.926 -3.919,-6.788 -3.919,-11.024 0,-4.232 1.48,-8.091 3.912,-11.016 l 0,-1.27 c -1.971,-2.78 -3.143,-6.25 -3.143,-10.015 0,-3.157 0.824,-6.107 2.252,-8.616 -1.898,-2.75 -3.021,-6.154 -3.021,-9.841 0,-3.932 1.278,-7.543 3.411,-10.381 -2.133,-2.838 -3.411,-6.449 -3.411,-10.382 0,-3.081 0.785,-5.964 2.15,-8.433 -3.647,-3.023 -5.995,-7.766 -5.995,-13.099 0,-1.455 0.175,-2.865 0.503,-4.209 l -6.166,-1.749 0.068,-2.598 c -4.158,-0.908 -7.535,-2.716 -8.719,-5.888 -1.995,-5.342 -8.432,-7.698 -8.717,-11.69 -0.248,-3.484 0.073,-5.944 -0.43,-9.146 -0.304,-1.926 -0.789,-3.037 -0.636,-4.884 0.304,-3.68 0.354,-7.117 2.7,-9.956 2.69,-3.255 4.429,-7.932 8.197,-9.391 7.879,-3.048 10.836,-8.741 18.76,-8.487 2.317,0.075 4.575,0.374 6.748,0.872 l 6.683,-0.951 c 2.633,-2.897 6.247,-4.757 10.265,-4.96 0.544,-1.191 1.219,-2.301 2.002,-3.309 l 0.297,-0.695 0.334,-0.069 c 2.804,-3.187 6.773,-5.174 11.175,-5.174 l 0.176,0.002 0.792,-1.406 c 0.511,-1.22 1.156,-2.361 1.914,-3.402 l 2.219,-3.942 1.911,-0.004 c 2.328,-1.523 5.06,-2.399 7.984,-2.399 2.9,0 5.612,0.863 7.927,2.363 l 5.98,-0.014 c 2.728,-2.655 6.347,-4.272 10.317,-4.272 3.946,0 7.544,1.598 10.267,4.224 l 5.813,-0.013 c 2.514,-1.925 5.591,-3.057 8.913,-3.057 3.299,0 6.354,1.116 8.859,3.016 l 5.931,-0.013 c 2.758,-2.814 6.485,-4.541 10.587,-4.541 3.817,0 7.309,1.495 9.998,3.97 2.689,-2.475 6.18,-3.97 9.996,-3.97 4.057,0 7.745,1.689 10.493,4.446 l 2.334,-0.005 c 2.475,-1.831 5.474,-2.903 8.706,-2.903 3.209,0 6.188,1.056 8.653,2.863 l 2.885,-0.006 c 2.633,-2.269 5.974,-3.626 9.61,-3.626 3.613,0 6.935,1.339 9.56,3.581 l 5.117,-0.011 c 2.623,-2.236 5.94,-3.571 9.547,-3.571 3.583,0 6.881,1.318 9.496,3.527 l 7.581,-0.017 c 2.312,-1.496 5.021,-2.356 7.916,-2.356 2.871,0 5.559,0.847 7.859,2.319 l 7.664,-0.017 c 2.669,-2.397 6.105,-3.84 9.854,-3.84 3.726,0 7.143,1.424 9.804,3.794 l 0.388,0 c 2.661,-2.37 6.077,-3.794 9.802,-3.794 3.702,0 7.098,1.406 9.752,3.749 l 4.108,-0.01 c 2.258,-1.4 4.879,-2.201 7.673,-2.201 2.77,0 5.37,0.788 7.615,2.166 l 4.799,-0.011 c 2.481,-1.843 5.49,-2.924 8.734,-2.924 2.362,0 4.599,0.573 6.599,1.596 0.697,-8.437 7.288,-15.053 15.318,-15.053 l 0.162,0.002 0.319,-0.121 c 2.53,-5.403 7.735,-9.11 13.745,-9.11 0.749,0 1.486,0.059 2.206,0.17 1.499,-5.284 5.392,-9.445 10.322,-11.021 z"
         id="path3905"
         inkscape:connector-curvature="0" />
      <path
         style="fill:#2c2c2b;stroke:#2c2c2b;stroke-width:0"
         d="m 173.998,168.259 402.003,0 c 61.067,0 111.03,49.964 111.03,111.03 l 0,375.202 c 0,61.066 -49.963,111.03 -111.03,111.03 l -402.003,0 c -61.066,0 -111.0292,-49.964 -111.0292,-111.03 l 0,-375.202 c 0,-61.066 49.9632,-111.03 111.0292,-111.03 z m 11.861,17.622 378.281,0 c 57.464,0 104.477,47.014 104.477,104.478 l 0,353.062 c 0,57.464 -47.013,104.477 -104.477,104.477 l -378.281,0 c -57.464,0 -104.4776,-47.013 -104.4776,-104.477 l 0,-353.062 c 0,-57.464 47.0136,-104.478 104.4776,-104.478 z"
         id="path3907"
         inkscape:connector-curvature="0" />
    </g>
  </g>
</svg>
