<?xml version="1.0" encoding="UTF-8" standalone="no"?>
<!-- Created with sK1/UniConvertor (http://sk1project.org/) -->

<svg
   xmlns:dc="http://purl.org/dc/elements/1.1/"
   xmlns:cc="http://creativecommons.org/ns#"
   xmlns:rdf="http://www.w3.org/1999/02/22-rdf-syntax-ns#"
   xmlns:svg="http://www.w3.org/2000/svg"
   xmlns="http://www.w3.org/2000/svg"
   xmlns:sodipodi="http://sodipodi.sourceforge.net/DTD/sodipodi-0.dtd"
   xmlns:inkscape="http://www.inkscape.org/namespaces/inkscape"
   width="937.5"
   height="937.5"
   viewBox="0 0 750.00003 750"
   id="svg6475"
   version="1.1"
   inkscape:version="0.48.4 r9939"
   sodipodi:docname="manantial.cdr"
   style="fill-rule:evenodd">
  <metadata
     id="metadata6487">
    <rdf:RDF>
      <cc:Work
         rdf:about="">
        <dc:format>image/svg+xml</dc:format>
        <dc:type
           rdf:resource="http://purl.org/dc/dcmitype/StillImage" />
        <dc:title></dc:title>
      </cc:Work>
    </rdf:RDF>
  </metadata>
  <defs
     id="defs6485" />
  <sodipodi:namedview
     pagecolor="#ffffff"
     bordercolor="#666666"
     borderopacity="1"
     objecttolerance="10"
     gridtolerance="10"
     guidetolerance="10"
     inkscape:pageopacity="0"
     inkscape:pageshadow="2"
     inkscape:window-width="727"
     inkscape:window-height="480"
     id="namedview6483"
     showgrid="false"
     units="pt"
     inkscape:document-units="pt"
     inkscape:zoom="0.22425732"
     inkscape:cx="372.04749"
     inkscape:cy="526.18127"
     inkscape:window-x="0"
     inkscape:window-y="0"
     inkscape:window-maximized="0"
     inkscape:current-layer="svg6475" />
  <g
     id="g6477"
     transform="translate(0,-91.889992)"
     style="fill:#1eb4f0;fill-opacity:1">
    <g
       id="g6479"
       style="fill:#1eb4f0;fill-opacity:1">
      <path
         style="fill:#1eb4f0;stroke:none;fill-opacity:1"
         d="m 386.453,436.825 c 100.525,6.034 180.189,89.456 180.189,191.498 0,105.962 -85.899,191.861 -191.861,191.861 -105.962,0 -191.862,-85.899 -191.862,-191.861 0,-102.042 79.665,-185.464 180.19,-191.498 l 0,-211.884 0.012,0 c -7.955,-53.74 -54.273,-94.977 -110.224,-94.977 -56.799,0 -103.671,42.496 -110.56,97.427 l -16.128,0 c 6.975,-63.801 61.029,-113.451 126.688,-113.451 57.398,0 105.927,37.944 121.889,90.115 15.665,-52.31 64.426,-90.46 122.168,-90.46 66.138,0 120.506,50.049 126.836,114.103 l -16.116,0 c -6.262,-55.244 -53.44,-98.184 -110.72,-98.184 -56.674,0 -103.452,42.037 -110.501,96.436 l 0,210.875 z m -11.672,18.848 c 95.352,0 172.65,77.298 172.65,172.65 0,95.351 -77.298,172.649 -172.65,172.649 -95.352,0 -172.65,-77.298 -172.65,-172.649 0,-95.352 77.298,-172.65 172.65,-172.65 z"
         id="path6481"
         inkscape:connector-curvature="0" />
    </g>
  </g>
</svg>
