<?xml version="1.0" encoding="UTF-8" standalone="no"?>
<!-- Created with sK1/UniConvertor (http://sk1project.org/) -->

<svg
   xmlns:dc="http://purl.org/dc/elements/1.1/"
   xmlns:cc="http://creativecommons.org/ns#"
   xmlns:rdf="http://www.w3.org/1999/02/22-rdf-syntax-ns#"
   xmlns:svg="http://www.w3.org/2000/svg"
   xmlns="http://www.w3.org/2000/svg"
   xmlns:sodipodi="http://sodipodi.sourceforge.net/DTD/sodipodi-0.dtd"
   xmlns:inkscape="http://www.inkscape.org/namespaces/inkscape"
   width="937.5"
   height="937.5"
   viewBox="0 0 750.00003 750"
   id="svg3865"
   version="1.1"
   inkscape:version="0.48.4 r9939"
   sodipodi:docname="marca geodesica posgar.cdr"
   style="fill-rule:evenodd">
  <metadata
     id="metadata3877">
    <rdf:RDF>
      <cc:Work
         rdf:about="">
        <dc:format>image/svg+xml</dc:format>
        <dc:type
           rdf:resource="http://purl.org/dc/dcmitype/StillImage" />
        <dc:title></dc:title>
      </cc:Work>
    </rdf:RDF>
  </metadata>
  <defs
     id="defs3875" />
  <sodipodi:namedview
     pagecolor="#ffffff"
     bordercolor="#666666"
     borderopacity="1"
     objecttolerance="10"
     gridtolerance="10"
     guidetolerance="10"
     inkscape:pageopacity="0"
     inkscape:pageshadow="2"
     inkscape:window-width="727"
     inkscape:window-height="480"
     id="namedview3873"
     showgrid="false"
     inkscape:document-units="pt"
     units="pt"
     inkscape:zoom="0.22425732"
     inkscape:cx="372.04749"
     inkscape:cy="526.18127"
     inkscape:window-x="0"
     inkscape:window-y="0"
     inkscape:window-maximized="0"
     inkscape:current-layer="svg3865" />
  <g
     id="g3867"
     transform="translate(0,-91.889992)"
     style="fill:#b21516;fill-opacity:1">
    <g
       id="g3869"
       style="fill:#b21516;fill-opacity:1">
      <path
         style="fill:#b21516;stroke:none;fill-opacity:1"
         d="m 375,160.046 c 169.465,0 306.844,137.379 306.844,306.844 C 681.844,636.355 544.465,773.734 375,773.734 205.535,773.734 68.1556,636.355 68.1556,466.89 68.1556,297.425 205.535,160.046 375,160.046 z m 0,-26.239 c 183.957,0 333.083,149.126 333.083,333.083 C 708.083,650.847 558.957,799.973 375,799.973 191.043,799.973 41.9165,650.847 41.9165,466.89 41.9165,282.933 191.043,133.807 375,133.807 z m 0,300.075 c 18.23,0 33.008,14.778 33.008,33.008 0,18.23 -14.778,33.008 -33.008,33.008 -18.23,0 -33.008,-14.778 -33.008,-33.008 0,-18.23 14.778,-33.008 33.008,-33.008 z"
         id="path3871"
         inkscape:connector-curvature="0" />
    </g>
  </g>
</svg>
