<?xml version="1.0" encoding="UTF-8" standalone="no"?>
<!-- Created with sK1/UniConvertor (http://sk1project.org/) -->

<svg
   xmlns:dc="http://purl.org/dc/elements/1.1/"
   xmlns:cc="http://creativecommons.org/ns#"
   xmlns:rdf="http://www.w3.org/1999/02/22-rdf-syntax-ns#"
   xmlns:svg="http://www.w3.org/2000/svg"
   xmlns="http://www.w3.org/2000/svg"
   xmlns:sodipodi="http://sodipodi.sourceforge.net/DTD/sodipodi-0.dtd"
   xmlns:inkscape="http://www.inkscape.org/namespaces/inkscape"
   width="937.5"
   height="937.5"
   viewBox="0 0 750.00003 750"
   id="svg3013"
   version="1.1"
   inkscape:version="0.48.4 r9939"
   sodipodi:docname="muro de embalse con paso peatonal.cdr"
   style="fill-rule:evenodd">
  <metadata
     id="metadata3025">
    <rdf:RDF>
      <cc:Work
         rdf:about="">
        <dc:format>image/svg+xml</dc:format>
        <dc:type
           rdf:resource="http://purl.org/dc/dcmitype/StillImage" />
        <dc:title></dc:title>
      </cc:Work>
    </rdf:RDF>
  </metadata>
  <defs
     id="defs3023" />
  <sodipodi:namedview
     pagecolor="#ffffff"
     bordercolor="#666666"
     borderopacity="1"
     objecttolerance="10"
     gridtolerance="10"
     guidetolerance="10"
     inkscape:pageopacity="0"
     inkscape:pageshadow="2"
     inkscape:window-width="640"
     inkscape:window-height="480"
     id="namedview3021"
     showgrid="false"
     units="pt"
     inkscape:document-units="pt"
     inkscape:zoom="0.22425732"
     inkscape:cx="372.04749"
     inkscape:cy="526.18127"
     inkscape:window-x="0"
     inkscape:window-y="0"
     inkscape:window-maximized="0"
     inkscape:current-layer="svg3013" />
  <g
     id="g3015"
     transform="translate(0,-91.889992)">
    <g
       id="g3017">
      <path
         style="fill:#2c2c2b;stroke:none"
         d="m 77.1654,502.663 595.9436,0 0,1.272 0.859,-0.852 44.633,44.986 -15.963,15.837 -33.802,-34.069 -587.5784,0 -33.9735,33.912 -15.8853,-15.914 44.8493,-44.769 0.9173,0.919 0,-1.322 z m 1.9992,-91.558 36.1104,0 0,-40.293 15.929,0 0,40.293 39.823,0 0,-39.357 15.929,0 0,39.357 40.292,0 0,-40.763 15.929,0 0,40.763 40.291,0 0,-40.293 15.929,0 0,40.293 40.292,0 0,-40.294 15.929,0 0,40.294 39.824,0 0,-39.826 15.929,0 0,39.826 40.293,0 0,-40.762 15.929,0 0,40.762 41.698,0 0,-39.826 15.929,0 0,39.826 40.292,0 0,-41.231 15.929,0 0,41.231 40.291,0 0,-40.762 15.929,0 0,40.762 33.174,0 0,27.174 -591.6704,0 0,-27.174 z"
         id="path3019"
         inkscape:connector-curvature="0" />
    </g>
  </g>
</svg>
