<?xml version="1.0" encoding="UTF-8" standalone="no"?>
<!-- Created with sK1/UniConvertor (http://sk1project.org/) -->

<svg
   xmlns:dc="http://purl.org/dc/elements/1.1/"
   xmlns:cc="http://creativecommons.org/ns#"
   xmlns:rdf="http://www.w3.org/1999/02/22-rdf-syntax-ns#"
   xmlns:svg="http://www.w3.org/2000/svg"
   xmlns="http://www.w3.org/2000/svg"
   xmlns:sodipodi="http://sodipodi.sourceforge.net/DTD/sodipodi-0.dtd"
   xmlns:inkscape="http://www.inkscape.org/namespaces/inkscape"
   width="937.5"
   height="937.5"
   viewBox="0 0 750.00003 750"
   id="svg3027"
   version="1.1"
   inkscape:version="0.48.4 r9939"
   sodipodi:docname="muro de embalse con camino.cdr"
   style="fill-rule:evenodd">
  <metadata
     id="metadata3039">
    <rdf:RDF>
      <cc:Work
         rdf:about="">
        <dc:format>image/svg+xml</dc:format>
        <dc:type
           rdf:resource="http://purl.org/dc/dcmitype/StillImage" />
        <dc:title></dc:title>
      </cc:Work>
    </rdf:RDF>
  </metadata>
  <defs
     id="defs3037" />
  <sodipodi:namedview
     pagecolor="#ffffff"
     bordercolor="#666666"
     borderopacity="1"
     objecttolerance="10"
     gridtolerance="10"
     guidetolerance="10"
     inkscape:pageopacity="0"
     inkscape:pageshadow="2"
     inkscape:window-width="640"
     inkscape:window-height="480"
     id="namedview3035"
     showgrid="false"
     inkscape:document-units="pt"
     units="pt"
     inkscape:zoom="0.22425732"
     inkscape:cx="372.04749"
     inkscape:cy="526.18127"
     inkscape:window-x="0"
     inkscape:window-y="0"
     inkscape:window-maximized="0"
     inkscape:current-layer="svg3027" />
  <g
     id="g3029"
     transform="translate(0,-91.889992)">
    <g
       id="g3031">
      <path
         style="fill:#2c2c2b;stroke:none"
         d="m 679.042,503.498 0,1.174 0.875,-0.868 45.521,45.88 -16.28,16.152 -34.475,-34.747 -599.2702,0 -34.6498,34.587 -16.2012,-16.231 45.742,-45.66 0.9352,0.937 0,-1.224 -49.8967,0 0,-12.218 707.3147,0 0,12.218 -49.615,0 z m -657.6997,-68.559 51.9357,0 0,-24.944 36.829,0 0,-41.095 16.246,0 0,41.095 40.615,0 0,-40.141 16.246,0 0,40.141 41.094,0 0,-41.574 16.246,0 0,41.574 41.093,0 0,-41.095 16.246,0 0,41.095 41.094,0 0,-41.096 16.246,0 0,41.096 40.616,0 0,-40.619 16.246,0 0,40.619 41.095,0 0,-41.573 16.245,0 0,41.573 42.528,0 0,-40.619 16.246,0 0,40.619 41.094,0 0,-42.052 16.246,0 0,42.052 41.093,0 0,-41.573 16.246,0 0,41.573 33.834,0 0,24.944 51.935,0 0,12.219 -707.3147,0 0,-12.219 z"
         id="path3033"
         inkscape:connector-curvature="0" />
    </g>
  </g>
</svg>
