<?xml version="1.0" encoding="UTF-8" standalone="no"?>
<!-- Created with sK1/UniConvertor (http://sk1project.org/) -->

<svg
   xmlns:dc="http://purl.org/dc/elements/1.1/"
   xmlns:cc="http://creativecommons.org/ns#"
   xmlns:rdf="http://www.w3.org/1999/02/22-rdf-syntax-ns#"
   xmlns:svg="http://www.w3.org/2000/svg"
   xmlns="http://www.w3.org/2000/svg"
   xmlns:sodipodi="http://sodipodi.sourceforge.net/DTD/sodipodi-0.dtd"
   xmlns:inkscape="http://www.inkscape.org/namespaces/inkscape"
   width="937.5"
   height="937.5"
   viewBox="0 0 750.00003 750"
   id="svg2999"
   version="1.1"
   inkscape:version="0.48.4 r9939"
   sodipodi:docname="muro de embalse.cdr"
   style="fill-rule:evenodd">
  <metadata
     id="metadata3011">
    <rdf:RDF>
      <cc:Work
         rdf:about="">
        <dc:format>image/svg+xml</dc:format>
        <dc:type
           rdf:resource="http://purl.org/dc/dcmitype/StillImage" />
        <dc:title></dc:title>
      </cc:Work>
    </rdf:RDF>
  </metadata>
  <defs
     id="defs3009" />
  <sodipodi:namedview
     pagecolor="#ffffff"
     bordercolor="#666666"
     borderopacity="1"
     objecttolerance="10"
     gridtolerance="10"
     guidetolerance="10"
     inkscape:pageopacity="0"
     inkscape:pageshadow="2"
     inkscape:window-width="640"
     inkscape:window-height="480"
     id="namedview3007"
     showgrid="false"
     inkscape:document-units="pt"
     units="pt"
     inkscape:zoom="0.22425732"
     inkscape:cx="372.04749"
     inkscape:cy="526.18127"
     inkscape:window-x="0"
     inkscape:window-y="0"
     inkscape:window-maximized="0"
     inkscape:current-layer="svg2999" />
  <g
     id="g3001"
     transform="translate(0,-91.889992)">
    <g
       id="g3003">
      <path
         style="fill:#2c2c2b;stroke:none"
         d="m 375.342,561.236 c -124.073,0 -239.106,-38.68 -333.7172,-104.629 l 0,-54.996 0.682,0 c 29.8749,23.461 62.2892,43.834 96.7602,60.645 l 22.144,-82.641 20.864,5.59 -23.112,86.255 c 16.698,7.316 33.837,13.811 51.368,19.433 l 23.486,-87.65 20.863,5.591 -23.644,88.242 c 20.181,5.587 40.837,10.031 61.894,13.258 l 16.305,-86.441 21.225,4.003 -16.086,85.285 c 20.012,2.251 40.354,3.408 60.967,3.408 3.896,0 7.783,-0.042 11.659,-0.124 l 0,-84.241 21.6,0 0,83.356 c 22.729,-1.383 45.079,-4.173 66.962,-8.284 l -24.08,-83.691 20.758,-5.972 24.525,85.237 c 18.896,-4.345 37.413,-9.682 55.494,-15.953 l -29.123,-81.988 20.354,-7.23 29.032,81.731 c 16.919,-6.644 33.421,-14.116 49.456,-22.369 l -27.453,-77.287 20.354,-7.23 26.329,74.12 c 23.549,-13.356 45.996,-28.428 67.167,-45.053 l 0,55.475 c -94.481,65.658 -209.259,104.15 -333.033,104.15 z"
         id="path3005"
         inkscape:connector-curvature="0" />
    </g>
  </g>
</svg>
