<?xml version="1.0" encoding="UTF-8" standalone="no"?>
<!-- Created with sK1/UniConvertor (http://sk1project.org/) -->

<svg
   xmlns:dc="http://purl.org/dc/elements/1.1/"
   xmlns:cc="http://creativecommons.org/ns#"
   xmlns:rdf="http://www.w3.org/1999/02/22-rdf-syntax-ns#"
   xmlns:svg="http://www.w3.org/2000/svg"
   xmlns="http://www.w3.org/2000/svg"
   xmlns:sodipodi="http://sodipodi.sourceforge.net/DTD/sodipodi-0.dtd"
   xmlns:inkscape="http://www.inkscape.org/namespaces/inkscape"
   width="937.5"
   height="937.5"
   viewBox="0 0 750.00003 750"
   id="svg4069"
   version="1.1"
   inkscape:version="0.48.4 r9939"
   sodipodi:docname="museo.cdr"
   style="fill-rule:evenodd">
  <metadata
     id="metadata4081">
    <rdf:RDF>
      <cc:Work
         rdf:about="">
        <dc:format>image/svg+xml</dc:format>
        <dc:type
           rdf:resource="http://purl.org/dc/dcmitype/StillImage" />
        <dc:title></dc:title>
      </cc:Work>
    </rdf:RDF>
  </metadata>
  <defs
     id="defs4079" />
  <sodipodi:namedview
     pagecolor="#ffffff"
     bordercolor="#666666"
     borderopacity="1"
     objecttolerance="10"
     gridtolerance="10"
     guidetolerance="10"
     inkscape:pageopacity="0"
     inkscape:pageshadow="2"
     inkscape:window-width="640"
     inkscape:window-height="480"
     id="namedview4077"
     showgrid="false"
     inkscape:document-units="pt"
     units="pt"
     inkscape:zoom="0.22425732"
     inkscape:cx="372.04749"
     inkscape:cy="526.18127"
     inkscape:window-x="0"
     inkscape:window-y="0"
     inkscape:window-maximized="0"
     inkscape:current-layer="svg4069" />
  <g
     id="g4071"
     transform="translate(0,-91.889992)">
    <g
       id="g4073">
      <path
         style="fill:#2c2c2b;stroke:none"
         d="m 171.265,237.964 407.47,0 0,21.413 -407.47,0 0,-21.413 z m -88.3263,58.57 584.1223,0 0,21.413 -584.1223,0 0,-21.413 z m -70.5357,60.459 725.194,0 0,21.413 -629.938,0 0,295.997 176.339,0 0,-294.737 22.672,0 0,294.737 154.926,0 0,-295.996 22.673,0 0,295.996 173.82,0 0,-294.737 22.672,0 0,294.737 56.836,0 0,21.413 -725.194,0 0,-21.413 72.584,0 0,-295.997 -72.584,0 0,-21.413 z"
         id="path4075"
         inkscape:connector-curvature="0" />
    </g>
  </g>
</svg>
