<?xml version="1.0" encoding="UTF-8" standalone="no"?>
<!-- Created with sK1/UniConvertor (http://sk1project.org/) -->

<svg
   xmlns:dc="http://purl.org/dc/elements/1.1/"
   xmlns:cc="http://creativecommons.org/ns#"
   xmlns:rdf="http://www.w3.org/1999/02/22-rdf-syntax-ns#"
   xmlns:svg="http://www.w3.org/2000/svg"
   xmlns="http://www.w3.org/2000/svg"
   xmlns:sodipodi="http://sodipodi.sourceforge.net/DTD/sodipodi-0.dtd"
   xmlns:inkscape="http://www.inkscape.org/namespaces/inkscape"
   width="937.5"
   height="937.5"
   viewBox="0 0 750.00003 750"
   id="svg4195"
   version="1.1"
   inkscape:version="0.48.4 r9939"
   sodipodi:docname="oficina telefonica.cdr"
   style="fill-rule:evenodd">
  <metadata
     id="metadata4207">
    <rdf:RDF>
      <cc:Work
         rdf:about="">
        <dc:format>image/svg+xml</dc:format>
        <dc:type
           rdf:resource="http://purl.org/dc/dcmitype/StillImage" />
        <dc:title></dc:title>
      </cc:Work>
    </rdf:RDF>
  </metadata>
  <defs
     id="defs4205" />
  <sodipodi:namedview
     pagecolor="#ffffff"
     bordercolor="#666666"
     borderopacity="1"
     objecttolerance="10"
     gridtolerance="10"
     guidetolerance="10"
     inkscape:pageopacity="0"
     inkscape:pageshadow="2"
     inkscape:window-width="640"
     inkscape:window-height="480"
     id="namedview4203"
     showgrid="false"
     inkscape:document-units="pt"
     units="pt"
     inkscape:zoom="0.22425732"
     inkscape:cx="372.04749"
     inkscape:cy="526.18127"
     inkscape:window-x="0"
     inkscape:window-y="0"
     inkscape:window-maximized="0"
     inkscape:current-layer="svg4195" />
  <g
     id="g4197"
     transform="translate(0,-91.889992)">
    <g
       id="g4199">
      <path
         style="fill:#2c2c2b;stroke:none"
         d="m 149.448,457.908 199.604,0 0,-104.625 c -53.667,-11.857 -93.814,-59.704 -93.814,-116.936 0,-66.142 53.619,-119.762 119.762,-119.762 66.143,0 119.763,53.62 119.763,119.762 0,57.232 -40.148,105.079 -93.814,116.936 l 0,104.625 199.603,0 0,359.287 -451.104,0 0,-359.287 z M 375,146.584 c 49.575,0 89.764,40.188 89.764,89.764 0,49.575 -40.189,89.763 -89.764,89.763 -49.575,0 -89.764,-40.188 -89.764,-89.763 0,-49.576 40.189,-89.764 89.764,-89.764 z"
         id="path4201"
         inkscape:connector-curvature="0" />
    </g>
  </g>
</svg>
