<?xml version="1.0" encoding="UTF-8" standalone="no"?>
<!-- Created with sK1/UniConvertor (http://sk1project.org/) -->

<svg
   xmlns:dc="http://purl.org/dc/elements/1.1/"
   xmlns:cc="http://creativecommons.org/ns#"
   xmlns:rdf="http://www.w3.org/1999/02/22-rdf-syntax-ns#"
   xmlns:svg="http://www.w3.org/2000/svg"
   xmlns="http://www.w3.org/2000/svg"
   xmlns:sodipodi="http://sodipodi.sourceforge.net/DTD/sodipodi-0.dtd"
   xmlns:inkscape="http://www.inkscape.org/namespaces/inkscape"
   width="937.5"
   height="937.5"
   viewBox="0 0 750.00003 750"
   id="svg3929"
   version="1.1"
   inkscape:version="0.48.4 r9939"
   sodipodi:docname="parroquia.cdr"
   style="fill-rule:evenodd">
  <metadata
     id="metadata3941">
    <rdf:RDF>
      <cc:Work
         rdf:about="">
        <dc:format>image/svg+xml</dc:format>
        <dc:type
           rdf:resource="http://purl.org/dc/dcmitype/StillImage" />
        <dc:title></dc:title>
      </cc:Work>
    </rdf:RDF>
  </metadata>
  <defs
     id="defs3939" />
  <sodipodi:namedview
     pagecolor="#ffffff"
     bordercolor="#666666"
     borderopacity="1"
     objecttolerance="10"
     gridtolerance="10"
     guidetolerance="10"
     inkscape:pageopacity="0"
     inkscape:pageshadow="2"
     inkscape:window-width="640"
     inkscape:window-height="480"
     id="namedview3937"
     showgrid="false"
     inkscape:document-units="pt"
     units="pt"
     inkscape:zoom="0.22425732"
     inkscape:cx="372.04749"
     inkscape:cy="526.18127"
     inkscape:window-x="0"
     inkscape:window-y="0"
     inkscape:window-maximized="0"
     inkscape:current-layer="svg3929" />
  <g
     id="g3931"
     transform="translate(0,-91.889992)">
    <g
       id="g3933">
      <path
         style="fill:#2c2c2b;stroke:none"
         d="m 387.941,432.385 c 101.79,6.657 182.313,91.238 182.472,194.674 l 134.328,0 0,25.883 -135.99,0 C 556.221,748.781 474.256,822.783 375,822.783 c -99.256,0 -181.222,-74.002 -193.751,-169.841 l -135.9896,0 0,-25.883 134.3266,0 c 0.16,-103.436 80.682,-188.017 182.472,-194.674 l 0,-145.382 -150.122,0 0,-25.884 150.122,0 0,-150.121 25.883,0 0,150.121 150.122,0 0,25.884 -150.122,0 0,145.382 z m -194.119,194.674 362.356,0 C 556.012,527.136 474.962,446.184 375,446.184 c -99.962,0 -181.012,80.952 -181.178,180.875 z m 360.554,25.883 -358.752,0 c 12.429,87.95 87.995,155.605 179.376,155.605 91.381,0 166.947,-67.655 179.376,-155.605 z"
         id="path3935"
         inkscape:connector-curvature="0" />
    </g>
  </g>
</svg>
