<?xml version="1.0" encoding="UTF-8" standalone="no"?>
<!-- Created with sK1/UniConvertor (http://sk1project.org/) -->

<svg
   xmlns:dc="http://purl.org/dc/elements/1.1/"
   xmlns:cc="http://creativecommons.org/ns#"
   xmlns:rdf="http://www.w3.org/1999/02/22-rdf-syntax-ns#"
   xmlns:svg="http://www.w3.org/2000/svg"
   xmlns="http://www.w3.org/2000/svg"
   xmlns:sodipodi="http://sodipodi.sourceforge.net/DTD/sodipodi-0.dtd"
   xmlns:inkscape="http://www.inkscape.org/namespaces/inkscape"
   width="937.5"
   height="937.5"
   viewBox="0 0 750.00003 750"
   id="svg3055"
   version="1.1"
   inkscape:version="0.48.4 r9939"
   sodipodi:docname="pozo con bomba a motor.cdr"
   style="fill-rule:evenodd">
  <metadata
     id="metadata3067">
    <rdf:RDF>
      <cc:Work
         rdf:about="">
        <dc:format>image/svg+xml</dc:format>
        <dc:type
           rdf:resource="http://purl.org/dc/dcmitype/StillImage" />
        <dc:title></dc:title>
      </cc:Work>
    </rdf:RDF>
  </metadata>
  <defs
     id="defs3065" />
  <sodipodi:namedview
     pagecolor="#ffffff"
     bordercolor="#666666"
     borderopacity="1"
     objecttolerance="10"
     gridtolerance="10"
     guidetolerance="10"
     inkscape:pageopacity="0"
     inkscape:pageshadow="2"
     inkscape:window-width="640"
     inkscape:window-height="480"
     id="namedview3063"
     showgrid="false"
     inkscape:document-units="pt"
     units="pt"
     inkscape:zoom="0.22425732"
     inkscape:cx="372.04749"
     inkscape:cy="526.18127"
     inkscape:window-x="0"
     inkscape:window-y="0"
     inkscape:window-maximized="0"
     inkscape:current-layer="svg3055" />
  <g
     id="g3057"
     transform="translate(0,-91.889992)">
    <g
       id="g3059">
      <path
         style="fill:#2c2c2b;stroke:none"
         d="m 374.999,291.288 c 96.983,0 175.602,78.619 175.602,175.602 0,96.982 -78.619,175.602 -175.602,175.602 -96.982,0 -175.602,-78.62 -175.602,-175.602 0,-96.983 78.62,-175.602 175.602,-175.602 z m 193.965,160.814 152.989,0 0,29.576 -152.989,0 C 561.407,582.2 477.455,661.411 374.999,661.411 272.544,661.411 188.591,582.2 181.034,481.678 l -152.9872,0 0,-29.576 152.9872,0 c 7.557,-100.522 91.51,-179.733 193.965,-179.733 102.456,0 186.408,79.211 193.965,179.733 z"
         id="path3061"
         inkscape:connector-curvature="0" />
    </g>
  </g>
</svg>
