<?xml version="1.0" encoding="UTF-8" standalone="no"?>
<!-- Created with sK1/UniConvertor (http://sk1project.org/) -->

<svg
   xmlns:dc="http://purl.org/dc/elements/1.1/"
   xmlns:cc="http://creativecommons.org/ns#"
   xmlns:rdf="http://www.w3.org/1999/02/22-rdf-syntax-ns#"
   xmlns:svg="http://www.w3.org/2000/svg"
   xmlns="http://www.w3.org/2000/svg"
   xmlns:sodipodi="http://sodipodi.sourceforge.net/DTD/sodipodi-0.dtd"
   xmlns:inkscape="http://www.inkscape.org/namespaces/inkscape"
   width="937.5"
   height="937.5"
   viewBox="0 0 750.00002 750"
   id="svg3083"
   version="1.1"
   inkscape:version="0.48.4 r9939"
   sodipodi:docname="salto de agua2.cdr"
   style="fill-rule:evenodd">
  <metadata
     id="metadata3095">
    <rdf:RDF>
      <cc:Work
         rdf:about="">
        <dc:format>image/svg+xml</dc:format>
        <dc:type
           rdf:resource="http://purl.org/dc/dcmitype/StillImage" />
        <dc:title></dc:title>
      </cc:Work>
    </rdf:RDF>
  </metadata>
  <defs
     id="defs3093" />
  <sodipodi:namedview
     pagecolor="#ffffff"
     bordercolor="#666666"
     borderopacity="1"
     objecttolerance="10"
     gridtolerance="10"
     guidetolerance="10"
     inkscape:pageopacity="0"
     inkscape:pageshadow="2"
     inkscape:window-width="640"
     inkscape:window-height="480"
     id="namedview3091"
     showgrid="false"
     inkscape:document-units="pt"
     units="pt"
     inkscape:zoom="0.22425732"
     inkscape:cx="372.04749"
     inkscape:cy="526.18127"
     inkscape:window-x="0"
     inkscape:window-y="0"
     inkscape:window-maximized="0"
     inkscape:current-layer="svg3083" />
  <g
     id="g3085"
     transform="translate(0,-91.889991)">
    <g
       id="g3087">
      <path
         style="fill:#d0eeee;stroke:none"
         d="m 43.3712,344.57 47.2291,0 0,261.501 20.4037,0 0,-261.501 49.552,0 0,261.501 20.403,0 0,-261.501 51.009,0 0,261.501 20.404,0 0,-261.501 51.009,0 0,261.501 20.404,0 0,-261.501 50.279,0 0,261.501 20.404,0 0,-261.501 48.823,0 0,261.501 20.404,0 0,-261.501 48.094,0 0,261.501 20.404,0 0,-261.501 51.009,0 0,261.501 20.404,0 0,-261.501 48.094,0 0,261.501 20.403,0 0,-261.501 36.714,0 0,261.501 17.606,0 0,-278.363 -702.8458,0 0,278.363 19.794,0 0,-261.501 z"
         id="path3089"
         inkscape:connector-curvature="0" />
    </g>
  </g>
</svg>
