<?xml version="1.0" encoding="UTF-8" standalone="no"?>
<!-- Created with sK1/UniConvertor (http://sk1project.org/) -->

<svg
   xmlns:dc="http://purl.org/dc/elements/1.1/"
   xmlns:cc="http://creativecommons.org/ns#"
   xmlns:rdf="http://www.w3.org/1999/02/22-rdf-syntax-ns#"
   xmlns:svg="http://www.w3.org/2000/svg"
   xmlns="http://www.w3.org/2000/svg"
   xmlns:sodipodi="http://sodipodi.sourceforge.net/DTD/sodipodi-0.dtd"
   xmlns:inkscape="http://www.inkscape.org/namespaces/inkscape"
   width="937.5"
   height="937.5"
   viewBox="0 0 750.00002 750"
   id="svg3901"
   version="1.1"
   inkscape:version="0.48.4 r9939"
   sodipodi:docname="templo.cdr"
   style="fill-rule:evenodd">
  <metadata
     id="metadata3913">
    <rdf:RDF>
      <cc:Work
         rdf:about="">
        <dc:format>image/svg+xml</dc:format>
        <dc:type
           rdf:resource="http://purl.org/dc/dcmitype/StillImage" />
        <dc:title></dc:title>
      </cc:Work>
    </rdf:RDF>
  </metadata>
  <defs
     id="defs3911" />
  <sodipodi:namedview
     pagecolor="#ffffff"
     bordercolor="#666666"
     borderopacity="1"
     objecttolerance="10"
     gridtolerance="10"
     guidetolerance="10"
     inkscape:pageopacity="0"
     inkscape:pageshadow="2"
     inkscape:window-width="640"
     inkscape:window-height="480"
     id="namedview3909"
     showgrid="false"
     inkscape:document-units="pt"
     units="pt"
     inkscape:zoom="0.22425732"
     inkscape:cx="372.04749"
     inkscape:cy="526.18127"
     inkscape:window-x="0"
     inkscape:window-y="0"
     inkscape:window-maximized="0"
     inkscape:current-layer="svg3901" />
  <g
     id="g3903"
     transform="translate(0,-91.889991)">
    <g
       id="g3905">
      <path
         style="fill:#2c2c2b;stroke:none"
         d="m 387.982,432.277 c 102.211,6.684 183.049,91.691 183.049,195.592 0,108.265 -87.766,196.031 -196.031,196.031 -108.265,0 -196.031,-87.766 -196.031,-196.031 0,-103.901 80.838,-188.908 183.049,-195.592 l 0,-145.839 -150.594,0 0,-25.965 150.594,0 0,-150.593 25.964,0 0,150.593 150.593,0 0,25.965 -150.593,0 0,145.839 z M 375,446.119 c 100.378,0 181.75,81.372 181.75,181.75 0,100.378 -81.372,181.75 -181.75,181.75 -100.378,0 -181.75,-81.372 -181.75,-181.75 0,-100.378 81.372,-181.75 181.75,-181.75 z"
         id="path3907"
         inkscape:connector-curvature="0" />
    </g>
  </g>
</svg>
