<?xml version="1.0" encoding="UTF-8" standalone="no"?>
<!-- Created with sK1/UniConvertor (http://sk1project.org/) -->

<svg
   xmlns:dc="http://purl.org/dc/elements/1.1/"
   xmlns:cc="http://creativecommons.org/ns#"
   xmlns:rdf="http://www.w3.org/1999/02/22-rdf-syntax-ns#"
   xmlns:svg="http://www.w3.org/2000/svg"
   xmlns="http://www.w3.org/2000/svg"
   xmlns:sodipodi="http://sodipodi.sourceforge.net/DTD/sodipodi-0.dtd"
   xmlns:inkscape="http://www.inkscape.org/namespaces/inkscape"
   width="937.5"
   height="937.5"
   viewBox="0 0 750.00003 750"
   id="svg3995"
   version="1.1"
   inkscape:version="0.48.4 r9939"
   sodipodi:docname="terminla de omnibus.cdr"
   style="fill-rule:evenodd">
  <metadata
     id="metadata4007">
    <rdf:RDF>
      <cc:Work
         rdf:about="">
        <dc:format>image/svg+xml</dc:format>
        <dc:type
           rdf:resource="http://purl.org/dc/dcmitype/StillImage" />
        <dc:title></dc:title>
      </cc:Work>
    </rdf:RDF>
  </metadata>
  <defs
     id="defs4005" />
  <sodipodi:namedview
     pagecolor="#ffffff"
     bordercolor="#666666"
     borderopacity="1"
     objecttolerance="10"
     gridtolerance="10"
     guidetolerance="10"
     inkscape:pageopacity="0"
     inkscape:pageshadow="2"
     inkscape:window-width="640"
     inkscape:window-height="480"
     id="namedview4003"
     showgrid="false"
     inkscape:document-units="pt"
     units="pt"
     inkscape:zoom="0.22425732"
     inkscape:cx="372.04749"
     inkscape:cy="526.18127"
     inkscape:window-x="22"
     inkscape:window-y="52"
     inkscape:window-maximized="0"
     inkscape:current-layer="svg3995" />
  <g
     id="g3997"
     transform="translate(0,-91.889992)">
    <g
       id="g3999">
      <path
         style="fill:#2c2c2b;stroke:none"
         d="m 12.875,293.836 724.25,0 0,253.488 -78.069,0 c -13.695,-35.445 -48.094,-60.588 -88.37,-60.588 -40.276,0 -74.675,25.143 -88.371,60.588 l -228.03,0 c -3.731,-10.129 -9.143,-19.445 -15.898,-27.609 l -7.209,-7.78 c -17.038,-16.46 -40.231,-26.591 -65.793,-26.591 -40.03,0 -74.2591,24.835 -88.1215,59.937 l -1.7131,2.043 -62.6754,0 0,-253.488 z m 151.117,220.756 c 34.615,0 62.675,28.061 62.675,62.677 0,34.614 -28.06,62.675 -62.675,62.675 -34.615,0 -62.676,-28.061 -62.676,-62.675 0,-34.616 28.061,-62.677 62.676,-62.677 z m 406.694,0 c 34.615,0 62.675,28.061 62.675,62.676 0,34.615 -28.06,62.676 -62.675,62.676 -34.615,0 -62.676,-28.061 -62.676,-62.676 0,-34.615 28.061,-62.676 62.676,-62.676 z"
         id="path4001"
         inkscape:connector-curvature="0" />
    </g>
  </g>
</svg>
