<?xml version="1.0" encoding="UTF-8" standalone="no"?>
<!-- Created with sK1/UniConvertor (http://sk1project.org/) -->

<svg
   xmlns:dc="http://purl.org/dc/elements/1.1/"
   xmlns:cc="http://creativecommons.org/ns#"
   xmlns:rdf="http://www.w3.org/1999/02/22-rdf-syntax-ns#"
   xmlns:svg="http://www.w3.org/2000/svg"
   xmlns="http://www.w3.org/2000/svg"
   xmlns:sodipodi="http://sodipodi.sourceforge.net/DTD/sodipodi-0.dtd"
   xmlns:inkscape="http://www.inkscape.org/namespaces/inkscape"
   width="937.5"
   height="937.5"
   viewBox="0 0 750.00003 750"
   id="svg4139"
   version="1.1"
   inkscape:version="0.48.4 r9939"
   sodipodi:docname="torre de control.cdr"
   style="fill-rule:evenodd">
  <metadata
     id="metadata4151">
    <rdf:RDF>
      <cc:Work
         rdf:about="">
        <dc:format>image/svg+xml</dc:format>
        <dc:type
           rdf:resource="http://purl.org/dc/dcmitype/StillImage" />
        <dc:title></dc:title>
      </cc:Work>
    </rdf:RDF>
  </metadata>
  <defs
     id="defs4149" />
  <sodipodi:namedview
     pagecolor="#ffffff"
     bordercolor="#666666"
     borderopacity="1"
     objecttolerance="10"
     gridtolerance="10"
     guidetolerance="10"
     inkscape:pageopacity="0"
     inkscape:pageshadow="2"
     inkscape:window-width="640"
     inkscape:window-height="480"
     id="namedview4147"
     showgrid="false"
     units="pt"
     inkscape:document-units="pt"
     inkscape:zoom="0.22425732"
     inkscape:cx="372.04749"
     inkscape:cy="526.18127"
     inkscape:window-x="0"
     inkscape:window-y="0"
     inkscape:window-maximized="0"
     inkscape:current-layer="svg4139" />
  <g
     id="g4141"
     transform="translate(0,-91.889992)">
    <g
       id="g4143">
      <path
         style="fill:#2c2c2b;stroke:none"
         d="m 164.069,271.116 421.862,0 c 9.725,0 17.683,7.957 17.683,17.683 l 0,78.31 c 0,9.725 -7.958,17.682 -17.683,17.682 l -156.62,0 0,420.599 -11.367,0 0,-437.019 149.041,0 c 13.894,0 25.261,-11.367 25.261,-25.261 l 0,-32.839 c 0,-13.894 -11.367,-25.261 -25.261,-25.261 l -386.496,0 c -13.894,0 -25.261,11.367 -25.261,25.261 l 0,32.839 c 0,13.894 11.367,25.261 25.261,25.261 l 143.989,0 0,437.019 -13.894,0 0,-420.599 -146.515,0 c -9.726,0 -17.683,-7.957 -17.683,-17.682 l 0,-78.31 c 0,-9.726 7.957,-17.683 17.683,-17.683 z m 70.731,-50.523 280.4,0 0,30.314 -280.4,0 0,-30.314 z m 37.892,-47.996 204.616,0 0,20.209 -204.616,0 0,-20.209 z m 44.207,-44.207 116.202,0 0,22.735 -116.202,0 0,-22.735 z"
         id="path4145"
         inkscape:connector-curvature="0" />
    </g>
  </g>
</svg>
