<?xml version="1.0" encoding="UTF-8" standalone="no"?>
<!-- Created with sK1/UniConvertor (http://sk1project.org/) -->

<svg
   xmlns:dc="http://purl.org/dc/elements/1.1/"
   xmlns:cc="http://creativecommons.org/ns#"
   xmlns:rdf="http://www.w3.org/1999/02/22-rdf-syntax-ns#"
   xmlns:svg="http://www.w3.org/2000/svg"
   xmlns="http://www.w3.org/2000/svg"
   xmlns:sodipodi="http://sodipodi.sourceforge.net/DTD/sodipodi-0.dtd"
   xmlns:inkscape="http://www.inkscape.org/namespaces/inkscape"
   width="937.5"
   height="937.5"
   viewBox="0 0 750.00003 750"
   id="svg4971"
   version="1.1"
   inkscape:version="0.48.4 r9939"
   sodipodi:docname="turismo.cdr"
   style="fill-rule:evenodd">
  <metadata
     id="metadata4985">
    <rdf:RDF>
      <cc:Work
         rdf:about="">
        <dc:format>image/svg+xml</dc:format>
        <dc:type
           rdf:resource="http://purl.org/dc/dcmitype/StillImage" />
        <dc:title></dc:title>
      </cc:Work>
    </rdf:RDF>
  </metadata>
  <defs
     id="defs4983" />
  <sodipodi:namedview
     pagecolor="#ffffff"
     bordercolor="#666666"
     borderopacity="1"
     objecttolerance="10"
     gridtolerance="10"
     guidetolerance="10"
     inkscape:pageopacity="0"
     inkscape:pageshadow="2"
     inkscape:window-width="640"
     inkscape:window-height="480"
     id="namedview4981"
     showgrid="false"
     inkscape:document-units="pt"
     units="pt"
     inkscape:zoom="0.22425732"
     inkscape:cx="372.04749"
     inkscape:cy="526.18127"
     inkscape:window-x="0"
     inkscape:window-y="0"
     inkscape:window-maximized="0"
     inkscape:current-layer="svg4971" />
  <g
     id="g4973"
     transform="translate(0,-91.889992)">
    <g
       id="g4975">
      <path
         style="fill:#0080c0;stroke:none"
         d="m 611.212,399.762 -18.118,0 c -9.228,-42.2 -23.436,-74.023 -42.539,-95.542 -19.158,-21.582 -88.139,-35.899 -123.138,-42.876 l 0,411.092 99.393,0 0,15.53 -304.296,0 0,-15.53 105.393,0 0,-411.092 c -34.998,6.977 -109.979,21.294 -129.138,42.876 -19.103,21.519 -33.311,53.342 -42.539,95.542 l -17.443,0 0,-153.948 472.425,0 0,153.948 z"
         id="path4977"
         inkscape:connector-curvature="0" />
      <path
         style="fill:#0080c0;stroke:none"
         d="m 173.998,168.259 402.003,0 c 61.067,0 111.03,49.964 111.03,111.03 l 0,375.202 c 0,61.066 -49.963,111.03 -111.03,111.03 l -402.003,0 c -61.066,0 -111.0292,-49.964 -111.0292,-111.03 l 0,-375.202 c 0,-61.066 49.9632,-111.03 111.0292,-111.03 z m 11.861,17.622 378.281,0 c 57.464,0 104.477,47.014 104.477,104.478 l 0,353.062 c 0,57.464 -47.013,104.477 -104.477,104.477 l -378.281,0 c -57.464,0 -104.4776,-47.013 -104.4776,-104.477 l 0,-353.062 c 0,-57.464 47.0136,-104.478 104.4776,-104.478 z"
         id="path4979"
         inkscape:connector-curvature="0" />
    </g>
  </g>
</svg>
