<?xml version="1.0" encoding="UTF-8" standalone="no"?>
<!-- Created with sK1/UniConvertor (http://sk1project.org/) -->

<svg
   xmlns:dc="http://purl.org/dc/elements/1.1/"
   xmlns:cc="http://creativecommons.org/ns#"
   xmlns:rdf="http://www.w3.org/1999/02/22-rdf-syntax-ns#"
   xmlns:svg="http://www.w3.org/2000/svg"
   xmlns="http://www.w3.org/2000/svg"
   xmlns:sodipodi="http://sodipodi.sourceforge.net/DTD/sodipodi-0.dtd"
   xmlns:inkscape="http://www.inkscape.org/namespaces/inkscape"
   width="937.5"
   height="937.5"
   viewBox="0 0 750.00003 750"
   id="svg3069"
   version="1.1"
   inkscape:version="0.48.4 r9939"
   sodipodi:docname="vivero.cdr"
   style="fill-rule:evenodd">
  <metadata
     id="metadata3081">
    <rdf:RDF>
      <cc:Work
         rdf:about="">
        <dc:format>image/svg+xml</dc:format>
        <dc:type
           rdf:resource="http://purl.org/dc/dcmitype/StillImage" />
        <dc:title></dc:title>
      </cc:Work>
    </rdf:RDF>
  </metadata>
  <defs
     id="defs3079" />
  <sodipodi:namedview
     pagecolor="#ffffff"
     bordercolor="#666666"
     borderopacity="1"
     objecttolerance="10"
     gridtolerance="10"
     guidetolerance="10"
     inkscape:pageopacity="0"
     inkscape:pageshadow="2"
     inkscape:window-width="708"
     inkscape:window-height="480"
     id="namedview3077"
     showgrid="false"
     inkscape:document-units="pt"
     units="pt"
     inkscape:zoom="0.22425732"
     inkscape:cx="269.62941"
     inkscape:cy="526.18127"
     inkscape:window-x="0"
     inkscape:window-y="0"
     inkscape:window-maximized="0"
     inkscape:current-layer="svg3069" />
  <g
     id="g3071"
     style="fill:#90b33a;fill-opacity:1"
     transform="translate(0,-91.889992)">
    <g
       id="g3073"
       style="fill:#90b33a;fill-opacity:1">
      <path
         style="fill:#90b33a;fill-opacity:1;stroke:#2c2c2b;stroke-width:0"
         d="m 375.43,506.6 c 20.821,0 37.699,16.878 37.699,37.698 0,20.821 -16.878,37.699 -37.699,37.699 -20.82,0 -37.698,-16.878 -37.698,-37.699 0,-20.82 16.878,-37.698 37.698,-37.698 z m -67.352,41.202 c -0.414,0.736 -0.83,1.472 -1.247,2.207 -14.356,25.309 -30.197,49.539 -54.656,63.043 -34.221,18.893 -75.316,20.789 -60.028,12.377 1.78,-0.98 3.628,-2.047 5.583,-3.129 99.023,-54.832 109.797,-110.753 106.711,-122.216 -1.59,-5.903 -2.216,-5.229 -2.266,-5.251 -0.056,-0.026 -1.668,-0.249 -5.68,0.893 -23.727,4.794 -184.313,32.922 -205.6945,200.451 -0.5301,4.153 -0.0014,8.24 -1.1724,11.715 -4.5264,13.428 30.0899,-22.34 40.9009,-30.267 43.437,-31.85 154.054,-8.098 174.427,-85.854 3.997,-15.252 4.48,-29.426 4.12,-37.416 -0.22,-4.888 -0.756,-7.461 -0.997,-6.553 m -33.167,-47.301 c -48.803,15.9 -112.38,-67.898 -86.764,-56.126 1.846,0.849 3.803,1.699 5.836,2.627 116.122,52.989 163.156,12.545 163.787,11.956 -17.508,-3.303 -140.168,-130.148 -293.0501,-37.825 -3.5844,2.164 -6.3485,5.253 -9.7727,6.566 -13.2304,5.075 36.3949,8.936 49.3958,12.21 49.416,12.414 56.613,52.064 125.943,75.589 m 109.02,-67.797 c -46.728,-43.319 -21.523,-142.304 -14.366,-112.879 0.48,1.974 0.994,4.044 1.561,6.206 13.879,48.855 101.202,150.409 91.71,134.808 -8.857,-14.556 -1.841,-198.1 -161.561,-248.944 -3.991,-1.27 -8.111,-1.453 -11.325,-3.218 -12.421,-6.822 16.689,33.555 22.587,45.594 21.902,44.7 12.358,124.948 20.717,147.078 m 178.239,94.313 c 27.759,-35.249 127.245,5.631 103.629,7.54 -2.025,0.157 -4.149,0.366 -6.376,0.545 -127.233,10.209 -148.597,69.369 -148.597,69.369 0,0 186.909,51.615 275.127,-107.768 2.028,-3.664 3.04,-7.659 5.41,-10.457 9.16,-10.813 -36.207,9.668 -49.18,13.05 -52.121,13.585 -135.396,-12.762 -151.029,-3.489 m -90.78,-76.419 c 4.532,-26.403 81.178,-67.771 103.728,-116.378 5.626,-12.168 18.617,-60.219 21.152,-46.277 0.657,3.608 3.1,6.927 4.642,10.82 67.091,169.365 -91.607,279.433 -91.607,279.433 0,0 -33.048,-53.517 38.069,-159.511 1.245,-1.856 2.402,-3.649 3.538,-5.332 12.723,-18.911 -62.332,52.926 -68.307,82.753 -1.799,8.983 -1.458,13.17 -1.205,13.184"
         id="path3075"
         inkscape:connector-curvature="0" />
    </g>
  </g>
</svg>
