<?xml version="1.0" encoding="UTF-8" standalone="no"?>
<!-- Created with sK1/UniConvertor (http://sk1project.org/) -->

<svg
   xmlns:dc="http://purl.org/dc/elements/1.1/"
   xmlns:cc="http://creativecommons.org/ns#"
   xmlns:rdf="http://www.w3.org/1999/02/22-rdf-syntax-ns#"
   xmlns:svg="http://www.w3.org/2000/svg"
   xmlns="http://www.w3.org/2000/svg"
   xmlns:sodipodi="http://sodipodi.sourceforge.net/DTD/sodipodi-0.dtd"
   xmlns:inkscape="http://www.inkscape.org/namespaces/inkscape"
   width="937.5"
   height="937.5"
   viewBox="0 0 750.00003 750"
   id="svg4987"
   version="1.1"
   inkscape:version="0.48.4 r9939"
   sodipodi:docname="servicio de_agua-gas-elec.cdr"
   style="fill-rule:evenodd">
  <metadata
     id="metadata4999">
    <rdf:RDF>
      <cc:Work
         rdf:about="">
        <dc:format>image/svg+xml</dc:format>
        <dc:type
           rdf:resource="http://purl.org/dc/dcmitype/StillImage" />
        <dc:title></dc:title>
      </cc:Work>
    </rdf:RDF>
  </metadata>
  <defs
     id="defs4997" />
  <sodipodi:namedview
     pagecolor="#ffffff"
     bordercolor="#666666"
     borderopacity="1"
     objecttolerance="10"
     gridtolerance="10"
     guidetolerance="10"
     inkscape:pageopacity="0"
     inkscape:pageshadow="2"
     inkscape:window-width="727"
     inkscape:window-height="480"
     id="namedview4995"
     showgrid="false"
     units="pt"
     inkscape:document-units="pt"
     inkscape:zoom="0.22425732"
     inkscape:cx="372.04749"
     inkscape:cy="526.18127"
     inkscape:window-x="123"
     inkscape:window-y="217"
     inkscape:window-maximized="0"
     inkscape:current-layer="svg4987" />
  <g
     id="g4989"
     transform="translate(0,-91.889992)"
     style="fill:#00a2e8;fill-opacity:1">
    <g
       id="g4991"
       style="fill:#00a2e8;fill-opacity:1">
      <path
         style="fill:#00a2e8;stroke:none;fill-opacity:1"
         d="m 351.249,215.468 c 0.866,-28.868 46.059,-34.264 48.632,2.214 l 0,68.11 c 33.191,4.771 63.485,18.498 88.364,38.646 l 38.663,-37.778 c 19.823,-18.321 53.011,8.29 30.364,33.89 l -37.447,36.755 c 18.283,24.529 30.537,53.816 34.559,85.672 l 72.038,0.162 c 28.867,0.867 34.264,46.06 -2.215,48.633 l -70.181,0 c -4.394,31.025 -16.608,59.532 -34.584,83.465 l 38.298,37.049 c 18.699,19.12 -6.729,52.73 -32.714,31.016 l -36.949,-35.581 c -24.85,20.071 -55.08,33.747 -88.196,38.507 l 0,69.598 c -4.077,32.8 -45.188,36.22 -49.764,0 l 0.157,-69.225 c -32.865,-4.23 -62.984,-17.222 -87.943,-36.557 l -37.339,36.65 c -24.55,18.755 -53.747,-6.429 -32.582,-33.195 l 37.141,-36.291 C 210.756,552.873 197.98,523.653 193.465,491.772 l -67.401,0 c -32.8001,-4.077 -36.2199,-45.189 0,-49.764 l 67.151,0.152 c 4.138,-31.627 16.397,-60.697 34.607,-85.059 L 192.76,323.337 c -19.26,-23.789 4.866,-53.407 31.964,-33.194 l 35.026,33.883 c 25.653,-20.627 57.013,-34.445 91.341,-38.706 l 0.158,-69.852 z"
         id="path4993"
         inkscape:connector-curvature="0" />
    </g>
  </g>
</svg>
