<?xml version="1.0" encoding="UTF-8" standalone="no"?>
<!-- Created with sK1/UniConvertor (http://sk1project.org/) -->

<svg
   xmlns:dc="http://purl.org/dc/elements/1.1/"
   xmlns:cc="http://creativecommons.org/ns#"
   xmlns:rdf="http://www.w3.org/1999/02/22-rdf-syntax-ns#"
   xmlns:svg="http://www.w3.org/2000/svg"
   xmlns="http://www.w3.org/2000/svg"
   xmlns:sodipodi="http://sodipodi.sourceforge.net/DTD/sodipodi-0.dtd"
   xmlns:inkscape="http://www.inkscape.org/namespaces/inkscape"
   width="937.5"
   height="937.5"
   viewBox="0 0 750.00003 750"
   id="svg4009"
   version="1.1"
   inkscape:version="0.48.4 r9939"
   sodipodi:docname="aeropuerto.cdr"
   style="fill-rule:evenodd">
  <metadata
     id="metadata4021">
    <rdf:RDF>
      <cc:Work
         rdf:about="">
        <dc:format>image/svg+xml</dc:format>
        <dc:type
           rdf:resource="http://purl.org/dc/dcmitype/StillImage" />
        <dc:title></dc:title>
      </cc:Work>
    </rdf:RDF>
  </metadata>
  <defs
     id="defs4019" />
  <sodipodi:namedview
     pagecolor="#ffffff"
     bordercolor="#666666"
     borderopacity="1"
     objecttolerance="10"
     gridtolerance="10"
     guidetolerance="10"
     inkscape:pageopacity="0"
     inkscape:pageshadow="2"
     inkscape:window-width="640"
     inkscape:window-height="480"
     id="namedview4017"
     showgrid="false"
     inkscape:document-units="pt"
     units="pt"
     inkscape:zoom="0.22425732"
     inkscape:cx="372.04749"
     inkscape:cy="526.18127"
     inkscape:window-x="0"
     inkscape:window-y="0"
     inkscape:window-maximized="0"
     inkscape:current-layer="svg4009" />
  <g
     id="g4011"
     transform="translate(0,-91.889992)">
    <g
       id="g4013">
      <path
         style="fill:#2c2c2b;stroke:none"
         d="m 378.115,199.728 c 57.598,0 111.158,16.356 155.798,44.419 l 55.362,-60.905 32.654,29.682 -52.447,57.698 c 49.407,43.23 82.46,102.977 89.362,169.986 l 74.283,0.043 -0.022,38.467 -73.21,-0.043 c -3.029,63.676 -29.602,121.54 -71.667,165.984 l 67.683,59.437 -29.118,33.158 -71.604,-62.88 c -47.755,36.517 -108.344,58.584 -174.362,59.174 l 0,78.866 -38.467,0 0,-80.961 c -56.021,-6.71 -106.907,-28.991 -147.701,-62.102 l -59.673,65.647 -32.654,-29.683 60.363,-66.406 C 123.429,595.364 98.887,539.242 96.2765,477.774 l -79.4035,-0.355 0.1681,-37.597 80.3924,0.359 C 102.62,390.658 122.092,345.116 151.889,307.297 l -64.9832,-57.066 29.1182,-33.158 65.907,57.877 c 41.813,-38.338 96.11,-64.54 156.569,-72.587 l 0,-81.398 38.467,0 0,78.777 c 0.384,-10e-4 0.764,-0.014 1.148,-0.014 z m 0,50.22 c 126.503,0 229.053,97.113 229.053,216.907 0,119.793 -102.55,216.906 -229.053,216.906 -126.503,0 -229.053,-97.113 -229.053,-216.906 0,-119.794 102.55,-216.907 229.053,-216.907 z"
         id="path4015"
         inkscape:connector-curvature="0" />
    </g>
  </g>
</svg>
