<?xml version="1.0" encoding="UTF-8" standalone="no"?>
<!-- Created with sK1/UniConvertor (http://sk1project.org/) -->

<svg
   xmlns:dc="http://purl.org/dc/elements/1.1/"
   xmlns:cc="http://creativecommons.org/ns#"
   xmlns:rdf="http://www.w3.org/1999/02/22-rdf-syntax-ns#"
   xmlns:svg="http://www.w3.org/2000/svg"
   xmlns="http://www.w3.org/2000/svg"
   xmlns:sodipodi="http://sodipodi.sourceforge.net/DTD/sodipodi-0.dtd"
   xmlns:inkscape="http://www.inkscape.org/namespaces/inkscape"
   width="937.5"
   height="937.5"
   viewBox="0 0 750.00003 750"
   id="svg5551"
   version="1.1"
   inkscape:version="0.48.4 r9939"
   sodipodi:docname="aserradero.cdr"
   style="fill-rule:evenodd">
  <metadata
     id="metadata5563">
    <rdf:RDF>
      <cc:Work
         rdf:about="">
        <dc:format>image/svg+xml</dc:format>
        <dc:type
           rdf:resource="http://purl.org/dc/dcmitype/StillImage" />
        <dc:title></dc:title>
      </cc:Work>
    </rdf:RDF>
  </metadata>
  <defs
     id="defs5561" />
  <sodipodi:namedview
     pagecolor="#ffffff"
     bordercolor="#666666"
     borderopacity="1"
     objecttolerance="10"
     gridtolerance="10"
     guidetolerance="10"
     inkscape:pageopacity="0"
     inkscape:pageshadow="2"
     inkscape:window-width="640"
     inkscape:window-height="480"
     id="namedview5559"
     showgrid="false"
     inkscape:document-units="pt"
     units="pt"
     inkscape:zoom="0.22425732"
     inkscape:cx="372.04749"
     inkscape:cy="526.18127"
     inkscape:window-x="0"
     inkscape:window-y="0"
     inkscape:window-maximized="0"
     inkscape:current-layer="svg5551" />
  <g
     id="g5553"
     transform="translate(0,-91.889992)">
    <g
       id="g5555">
      <path
         style="fill:#2c2c2b;stroke:none"
         d="m 233.036,333.506 270.966,0 L 370.959,537.352 233.036,333.506 z m 139.686,-181.236 0.095,0.093 0.316,-0.323 195.79,191.646 -7.665,7.832 -28.722,-28.114 0,458.335 -315.072,0 0,-455.187 -28.557,29.173 -7.831,-7.665 191.646,-195.79 z M 529.289,320.226 373.204,167.444 223.656,320.226 l 305.633,0 z m -10.034,14.267 0,422.039 L 379.05,549.312 519.255,334.493 z M 230.744,752.186 363.066,549.445 230.744,353.875 l 0,398.311 z m 140.414,-190.782 -135.136,207.054 275.229,0 -140.093,-207.054 z m 148.097,206.503 0,0.551 -0.815,0 0.815,-0.551 z"
         id="path5557"
         inkscape:connector-curvature="0" />
    </g>
  </g>
</svg>
