<?xml version="1.0" encoding="UTF-8" standalone="no"?>
<!-- Created with sK1/UniConvertor (http://sk1project.org/) -->

<svg
   xmlns:dc="http://purl.org/dc/elements/1.1/"
   xmlns:cc="http://creativecommons.org/ns#"
   xmlns:rdf="http://www.w3.org/1999/02/22-rdf-syntax-ns#"
   xmlns:svg="http://www.w3.org/2000/svg"
   xmlns="http://www.w3.org/2000/svg"
   xmlns:sodipodi="http://sodipodi.sourceforge.net/DTD/sodipodi-0.dtd"
   xmlns:inkscape="http://www.inkscape.org/namespaces/inkscape"
   width="937.5"
   height="937.5"
   viewBox="0 0 750.00003 750"
   id="svg3985"
   version="1.1"
   inkscape:version="0.48.4 r9939"
   sodipodi:docname="Balneareo.cdr"
   style="fill-rule:evenodd">
  <metadata
     id="metadata3997">
    <rdf:RDF>
      <cc:Work
         rdf:about="">
        <dc:format>image/svg+xml</dc:format>
        <dc:type
           rdf:resource="http://purl.org/dc/dcmitype/StillImage" />
        <dc:title></dc:title>
      </cc:Work>
    </rdf:RDF>
  </metadata>
  <defs
     id="defs3995" />
  <sodipodi:namedview
     pagecolor="#ffffff"
     bordercolor="#666666"
     borderopacity="1"
     objecttolerance="10"
     gridtolerance="10"
     guidetolerance="10"
     inkscape:pageopacity="0"
     inkscape:pageshadow="2"
     inkscape:window-width="640"
     inkscape:window-height="480"
     id="namedview3993"
     showgrid="false"
     inkscape:document-units="pt"
     units="pt"
     inkscape:zoom="0.22425732"
     inkscape:cx="372.04749"
     inkscape:cy="526.18127"
     inkscape:window-x="0"
     inkscape:window-y="0"
     inkscape:window-maximized="0"
     inkscape:current-layer="svg3985" />
  <g
     id="g3987"
     transform="translate(0,-91.889992)">
    <g
       id="g3989">
      <path
         style="fill:#000000;stroke:none"
         d="M 179.358,250.286 350.022,412.913 371.706,386.201 204.701,228.722 c -8.848,6.691 -17.309,13.89 -25.343,21.564 z m 38.879,-67.466 0.013,-0.009 0.001,0.001 c 9.915,-5.915 20.18,-11.267 30.735,-16.055 l -0.02,-0.018 0.293,-0.106 c 14.184,-6.418 28.911,-11.778 44.089,-16 l 0.285,-0.104 0.019,0.018 c 13.071,-3.62 26.477,-6.389 40.158,-8.249 l -0.011,-0.01 0.114,-0.005 c 13.447,-1.823 27.161,-2.767 41.087,-2.767 5.841,0 11.642,0.178 17.404,0.504 l 0.137,-0.006 0.016,0.016 c 165.899,9.464 297.62,152.177 297.62,326.86 0,180.804 -141.11,327.374 -315.177,327.374 -143.818,0 -265.128,-100.058 -302.9508,-236.809 l -0.0146,-0.014 -0.0148,-0.089 C 65.8897,535.161 61.9774,512.001 60.5025,488.15 l -0.0407,-0.244 0.0274,0.026 C 60.063,480.973 59.823,473.961 59.823,466.89 c 0,-12.954 0.748,-25.725 2.157,-38.287 l -0.022,-0.021 0.058,-0.306 c 1.9255,-17.018 5.0979,-33.638 9.4368,-49.755 l 0.0319,-0.168 0.0094,0.009 c 3.8886,-14.416 8.7152,-28.422 14.3852,-41.959 l -0.0177,-0.017 0.0773,-0.125 C 113.076,271.553 159.749,217.718 218.237,182.82 z m 23.305,22.258 156.073,149.206 21.787,-26.838 -145.505,-137.199 c -11.129,4.265 -21.931,9.225 -32.355,14.831 z m 79.588,-28.261 124.177,118.717 22.119,-27.248 -102.095,-96.267 c -15.054,0.427 -29.816,2.057 -44.201,4.798 z m 111.442,1.468 60.76,58.089 21.095,-25.986 c -25.146,-14.787 -52.679,-25.741 -81.855,-32.103 z m 109.633,50.73 -120.435,148.36 0.531,0.508 c 0.178,0.063 0.235,0.084 -0.775,1.334 -1.959,2.429 -7.939,9.495 -24.858,30.522 l -0.663,-0.626 -21.795,26.849 223.486,212.962 c 38.289,-50.157 61.137,-113.458 61.137,-182.269 0,-97.534 -45.907,-183.993 -116.628,-237.64 z m 28.197,450.888 -222.904,-211.035 -26.488,32.629 0.045,0.042 c 0.525,0.187 0,0 -25.901,32.185 l -0.173,-0.163 -118.828,146.381 c 51.253,50.474 120.672,81.467 197.106,81.467 76.452,0 145.887,-31.009 197.143,-81.506 z m -416.855,-24.961 9.494,-11.694 -43.315,-40.841 c 9.462,18.785 20.819,36.39 33.821,52.535 z M 92.024,518.082 189.215,611.004 217.927,575.635 87.9952,453.131 c -0.1964,4.484 -0.3112,8.99 -0.3112,13.524 0,17.544 1.4909,34.728 4.34,51.427 z M 94.8661,400.708 244.102,543.392 270.681,510.649 108.01,357.269 c -5.419,13.983 -9.8344,28.494 -13.1439,43.439 z m 32.6309,-84.221 169.36,161.918 26.384,-32.502 -172.798,-163.596 c -8.395,10.796 -16.068,22.216 -22.946,34.18 z"
         id="path3991"
         inkscape:connector-curvature="0" />
    </g>
  </g>
</svg>
