<?xml version="1.0" encoding="UTF-8" standalone="no"?>
<!-- Created with sK1/UniConvertor (http://sk1project.org/) -->

<svg
   xmlns:dc="http://purl.org/dc/elements/1.1/"
   xmlns:cc="http://creativecommons.org/ns#"
   xmlns:rdf="http://www.w3.org/1999/02/22-rdf-syntax-ns#"
   xmlns:svg="http://www.w3.org/2000/svg"
   xmlns="http://www.w3.org/2000/svg"
   xmlns:sodipodi="http://sodipodi.sourceforge.net/DTD/sodipodi-0.dtd"
   xmlns:inkscape="http://www.inkscape.org/namespaces/inkscape"
   width="937.5"
   height="937.5"
   viewBox="0 0 750.00003 750"
   id="svg3985"
   version="1.1"
   inkscape:version="0.48.4 r9939"
   sodipodi:docname="bifurcacion.cdr"
   style="fill-rule:evenodd">
  <metadata
     id="metadata4001">
    <rdf:RDF>
      <cc:Work
         rdf:about="">
        <dc:format>image/svg+xml</dc:format>
        <dc:type
           rdf:resource="http://purl.org/dc/dcmitype/StillImage" />
        <dc:title></dc:title>
      </cc:Work>
    </rdf:RDF>
  </metadata>
  <defs
     id="defs3999" />
  <sodipodi:namedview
     pagecolor="#ffffff"
     bordercolor="#666666"
     borderopacity="1"
     objecttolerance="10"
     gridtolerance="10"
     guidetolerance="10"
     inkscape:pageopacity="0"
     inkscape:pageshadow="2"
     inkscape:window-width="640"
     inkscape:window-height="480"
     id="namedview3997"
     showgrid="false"
     inkscape:document-units="pt"
     units="pt"
     inkscape:zoom="0.22425732"
     inkscape:cx="372.04749"
     inkscape:cy="526.18127"
     inkscape:window-x="0"
     inkscape:window-y="0"
     inkscape:window-maximized="0"
     inkscape:current-layer="svg3985" />
  <g
     id="g3987"
     transform="matrix(0.33499745,0,0,0.33499745,18.396563,453.13955)">
    <g
       id="g3989">
      <path
         style="fill:#fbde10;stroke:#2c2c2b;stroke-width:0"
         d="M 60.7935,-301.279 982.816,-1223.3 c 44.174,-44.17 116.174,-44.17 160.354,0 l 922.02,922.021 c 44.17,44.174 44.17,116.18 0,160.353 l -922.02,922.022 c -44.18,44.173 -116.18,44.173 -160.354,0 L 60.7935,-140.926 c -44.1728,-44.173 -44.1728,-116.179 0,-160.353 z"
         id="path3991"
         inkscape:connector-curvature="0" />
      <path
         style="fill:#000000;stroke:#2c2c2b;stroke-width:0"
         d="M 60.7935,-301.279 982.816,-1223.3 c 44.174,-44.17 116.174,-44.17 160.354,0 l 922.02,922.021 c 44.17,44.174 44.17,116.18 0,160.353 l -922.02,922.022 c -44.18,44.173 -116.18,44.173 -160.354,0 L 60.7935,-140.926 c -44.1728,-44.173 -44.1728,-116.179 0,-160.353 z m 40.0885,40.089 922.018,-922.02 c 22.05,-22.05 58.13,-22.05 80.18,0 l 922.02,922.02 c 22.05,22.048 22.05,58.127 0,80.176 l -922.02,922.022 c -22.05,22.049 -58.13,22.049 -80.18,0 L 100.882,-181.014 c -22.0482,-22.049 -22.0482,-58.128 0,-80.176 z"
         id="path3993"
         inkscape:connector-curvature="0" />
      <path
         style="fill:#000000;stroke:#2c2c2b;stroke-width:0"
         d="m 532.542,-551.114 200.44,-200.44 330.008,330.012 330.02,-330.014 200.44,200.44 -388.73,388.722 0,660.027 -283.46,0 0,-660.028 -388.718,-388.719 z"
         id="path3995"
         inkscape:connector-curvature="0" />
    </g>
  </g>
</svg>
