<?xml version="1.0" encoding="UTF-8" standalone="no"?>
<!-- Created with sK1/UniConvertor (http://sk1project.org/) -->

<svg
   xmlns:dc="http://purl.org/dc/elements/1.1/"
   xmlns:cc="http://creativecommons.org/ns#"
   xmlns:rdf="http://www.w3.org/1999/02/22-rdf-syntax-ns#"
   xmlns:svg="http://www.w3.org/2000/svg"
   xmlns="http://www.w3.org/2000/svg"
   xmlns:sodipodi="http://sodipodi.sourceforge.net/DTD/sodipodi-0.dtd"
   xmlns:inkscape="http://www.inkscape.org/namespaces/inkscape"
   width="937.5"
   height="937.5"
   viewBox="0 0 750.00003 750"
   id="svg4279"
   version="1.1"
   inkscape:version="0.48.4 r9939"
   sodipodi:docname="boca de toma de agua.cdr"
   style="fill-rule:evenodd">
  <metadata
     id="metadata4291">
    <rdf:RDF>
      <cc:Work
         rdf:about="">
        <dc:format>image/svg+xml</dc:format>
        <dc:type
           rdf:resource="http://purl.org/dc/dcmitype/StillImage" />
        <dc:title></dc:title>
      </cc:Work>
    </rdf:RDF>
  </metadata>
  <defs
     id="defs4289" />
  <sodipodi:namedview
     pagecolor="#ffffff"
     bordercolor="#666666"
     borderopacity="1"
     objecttolerance="10"
     gridtolerance="10"
     guidetolerance="10"
     inkscape:pageopacity="0"
     inkscape:pageshadow="2"
     inkscape:window-width="640"
     inkscape:window-height="480"
     id="namedview4287"
     showgrid="false"
     units="pt"
     inkscape:document-units="pt"
     inkscape:zoom="0.22425732"
     inkscape:cx="372.04749"
     inkscape:cy="526.18127"
     inkscape:window-x="0"
     inkscape:window-y="0"
     inkscape:window-maximized="0"
     inkscape:current-layer="svg4279" />
  <g
     id="g4281"
     transform="translate(0,-91.889992)">
    <g
       id="g4283">
      <path
         style="fill:#2c2c2b;stroke:none"
         d="m 289.894,233.863 c 140.893,0 256.214,95.739 265.671,216.92 l 136.494,0 0,-70.873 34.363,0 0,188.998 -34.363,0 0,-83.761 -136.66,0 C 544.757,605.311 429.954,699.917 289.894,699.917 142.81,699.917 23.5771,595.587 23.5771,466.89 23.5771,338.193 142.81,233.863 289.894,233.863 z m 0,31.739 c 127.049,0 230.042,90.12 230.042,201.288 0,111.168 -102.993,201.287 -230.042,201.287 -127.05,0 -230.0426,-90.119 -230.0426,-201.287 0,-111.168 102.9926,-201.288 230.0426,-201.288 z"
         id="path4285"
         inkscape:connector-curvature="0" />
    </g>
  </g>
</svg>
