<?xml version="1.0" encoding="UTF-8" standalone="no"?>
<!-- Created with sK1/UniConvertor (http://sk1project.org/) -->

<svg
   xmlns:dc="http://purl.org/dc/elements/1.1/"
   xmlns:cc="http://creativecommons.org/ns#"
   xmlns:rdf="http://www.w3.org/1999/02/22-rdf-syntax-ns#"
   xmlns:svg="http://www.w3.org/2000/svg"
   xmlns="http://www.w3.org/2000/svg"
   xmlns:sodipodi="http://sodipodi.sourceforge.net/DTD/sodipodi-0.dtd"
   xmlns:inkscape="http://www.inkscape.org/namespaces/inkscape"
   width="937.5"
   height="937.5"
   viewBox="0 0 750.00003 750"
   id="svg3001"
   version="1.1"
   inkscape:version="0.48.4 r9939"
   sodipodi:docname="Campamento_vialidadD.cdr"
   style="fill-rule:evenodd">
  <metadata
     id="metadata3015">
    <rdf:RDF>
      <cc:Work
         rdf:about="">
        <dc:format>image/svg+xml</dc:format>
        <dc:type
           rdf:resource="http://purl.org/dc/dcmitype/StillImage" />
        <dc:title></dc:title>
      </cc:Work>
    </rdf:RDF>
  </metadata>
  <defs
     id="defs3013" />
  <sodipodi:namedview
     pagecolor="#ffffff"
     bordercolor="#666666"
     borderopacity="1"
     objecttolerance="10"
     gridtolerance="10"
     guidetolerance="10"
     inkscape:pageopacity="0"
     inkscape:pageshadow="2"
     inkscape:window-width="640"
     inkscape:window-height="480"
     id="namedview3011"
     showgrid="false"
     units="pt"
     inkscape:document-units="pt"
     inkscape:zoom="0.22425732"
     inkscape:cx="372.04749"
     inkscape:cy="526.18127"
     inkscape:window-x="0"
     inkscape:window-y="0"
     inkscape:window-maximized="0"
     inkscape:current-layer="svg3001" />
  <g
     id="g3003"
     transform="translate(0,-91.889992)">
    <g
       id="g3005">
      <path
         style="fill:#fbde10;stroke:none"
         d="m 376.764,250.148 -198.06,424.756 197.649,0 197.649,0 -197.238,-424.756 z"
         id="path3007"
         inkscape:connector-curvature="0" />
      <path
         style="fill:#2c2c2b;stroke:none"
         d="m 360.999,631.948 -57.89,-162.183 19.215,-0.852 c 3.687,10.144 4.171,11.04 18.704,54.382 5.085,15.165 19.396,47.406 27.286,71.056 3.652,10.945 6.667,19.716 8.146,24.259 1.215,3.731 0.922,3.725 2.668,-0.316 l 54.115,-148.684 19.921,-0.84 -60.422,163.177 -31.743,10e-4 z m 236.595,58.568 -441.331,1.14 221.107,-474.043 220.224,472.903 z m -22.621,-13.888 -197.239,-424.756 -198.06,424.756 395.299,0 z m -396.424,-501.607 392.901,0 c 59.684,0 108.516,48.832 108.516,108.516 l 0,366.706 c 0,59.684 -48.832,108.516 -108.516,108.516 l -392.901,0 c -59.683,0 -108.5151,-48.832 -108.5151,-108.516 l 0,-366.706 c 0,-59.684 48.8321,-108.516 108.5151,-108.516 z m 11.592,17.223 369.717,0 c 56.162,0 102.111,45.949 102.111,102.112 l 0,345.068 c 0,56.162 -45.949,102.112 -102.111,102.112 l -369.717,0 c -56.162,0 -102.1117,-45.95 -102.1117,-102.112 l 0,-345.068 c 0,-56.163 45.9497,-102.112 102.1117,-102.112 z"
         id="path3009"
         inkscape:connector-curvature="0" />
    </g>
  </g>
</svg>
