<?xml version="1.0" encoding="UTF-8" standalone="no"?>
<!-- Created with sK1/UniConvertor (http://sk1project.org/) -->

<svg
   xmlns:dc="http://purl.org/dc/elements/1.1/"
   xmlns:cc="http://creativecommons.org/ns#"
   xmlns:rdf="http://www.w3.org/1999/02/22-rdf-syntax-ns#"
   xmlns:svg="http://www.w3.org/2000/svg"
   xmlns="http://www.w3.org/2000/svg"
   xmlns:sodipodi="http://sodipodi.sourceforge.net/DTD/sodipodi-0.dtd"
   xmlns:inkscape="http://www.inkscape.org/namespaces/inkscape"
   width="937.5"
   height="937.5"
   viewBox="0 0 750.00003 750"
   id="svg3957"
   version="1.1"
   inkscape:version="0.48.4 r9939"
   sodipodi:docname="capilla.cdr"
   style="fill-rule:evenodd">
  <metadata
     id="metadata3969">
    <rdf:RDF>
      <cc:Work
         rdf:about="">
        <dc:format>image/svg+xml</dc:format>
        <dc:type
           rdf:resource="http://purl.org/dc/dcmitype/StillImage" />
        <dc:title></dc:title>
      </cc:Work>
    </rdf:RDF>
  </metadata>
  <defs
     id="defs3967" />
  <sodipodi:namedview
     pagecolor="#ffffff"
     bordercolor="#666666"
     borderopacity="1"
     objecttolerance="10"
     gridtolerance="10"
     guidetolerance="10"
     inkscape:pageopacity="0"
     inkscape:pageshadow="2"
     inkscape:window-width="640"
     inkscape:window-height="480"
     id="namedview3965"
     showgrid="false"
     inkscape:document-units="pt"
     units="pt"
     inkscape:zoom="0.22425732"
     inkscape:cx="372.04749"
     inkscape:cy="526.18127"
     inkscape:window-x="0"
     inkscape:window-y="0"
     inkscape:window-maximized="0"
     inkscape:current-layer="svg3957" />
  <g
     id="g3959"
     transform="translate(0,-91.889992)">
    <g
       id="g3961">
      <path
         style="fill:#2c2c2b;stroke:none"
         d="m 13.5199,688.458 149.8081,0 C 170.662,584.921 254.612,502.393 359.23,496.432 l 0,-126.797 -142.565,0 0,-31.539 142.565,0 0,-142.564 31.539,0 0,142.564 142.564,0 0,31.539 -142.564,0 0,127.332 c 101.213,9.276 181.466,90.364 188.63,191.491 l 157.08,0 0,49.79 -722.9591,0 0,-49.79 z m 175.2151,0 365.257,0 c -7.559,-93.601 -86.433,-167.222 -182.629,-167.222 -96.196,0 -175.07,73.621 -182.628,167.222 z"
         id="path3963"
         inkscape:connector-curvature="0" />
    </g>
  </g>
</svg>
