<?xml version="1.0" encoding="UTF-8" standalone="no"?>
<!-- Created with sK1/UniConvertor (http://sk1project.org/) -->

<svg
   xmlns:dc="http://purl.org/dc/elements/1.1/"
   xmlns:cc="http://creativecommons.org/ns#"
   xmlns:rdf="http://www.w3.org/1999/02/22-rdf-syntax-ns#"
   xmlns:svg="http://www.w3.org/2000/svg"
   xmlns="http://www.w3.org/2000/svg"
   xmlns:sodipodi="http://sodipodi.sourceforge.net/DTD/sodipodi-0.dtd"
   xmlns:inkscape="http://www.inkscape.org/namespaces/inkscape"
   width="937.5"
   height="937.5"
   viewBox="0 0 750.00003 750"
   id="svg3013"
   version="1.1"
   inkscape:version="0.48.4 r9939"
   sodipodi:docname="carcel.cdr"
   style="fill-rule:evenodd">
  <metadata
     id="metadata3025">
    <rdf:RDF>
      <cc:Work
         rdf:about="">
        <dc:format>image/svg+xml</dc:format>
        <dc:type
           rdf:resource="http://purl.org/dc/dcmitype/StillImage" />
        <dc:title></dc:title>
      </cc:Work>
    </rdf:RDF>
  </metadata>
  <defs
     id="defs3023" />
  <sodipodi:namedview
     pagecolor="#ffffff"
     bordercolor="#666666"
     borderopacity="1"
     objecttolerance="10"
     gridtolerance="10"
     guidetolerance="10"
     inkscape:pageopacity="0"
     inkscape:pageshadow="2"
     inkscape:window-width="640"
     inkscape:window-height="480"
     id="namedview3021"
     showgrid="false"
     inkscape:document-units="pt"
     units="pt"
     inkscape:zoom="0.22425732"
     inkscape:cx="372.04749"
     inkscape:cy="526.18127"
     inkscape:window-x="0"
     inkscape:window-y="0"
     inkscape:window-maximized="0"
     inkscape:current-layer="svg3013" />
  <g
     id="g3015"
     transform="translate(0,-91.889992)">
    <g
       id="g3017">
      <path
         style="fill:#2c2c2b;stroke:none"
         d="m 375,118.261 c 192.542,0 348.629,156.087 348.629,348.629 C 723.629,659.432 567.542,815.519 375,815.519 182.457,815.519 26.3707,659.432 26.3707,466.89 26.3707,274.348 182.457,118.261 375,118.261 z m 37.894,26.637 0,643.983 C 574.091,770.111 699.208,633.123 699.208,466.89 699.208,300.656 574.091,163.668 412.894,144.898 z m -75.789,643.983 0,-643.983 C 175.909,163.668 50.7919,300.656 50.7919,466.89 c 0,166.233 125.1171,303.221 286.3131,321.991 z"
         id="path3019"
         inkscape:connector-curvature="0" />
    </g>
  </g>
</svg>
