<?xml version="1.0" encoding="UTF-8" standalone="no"?>
<!-- Created with sK1/UniConvertor (http://sk1project.org/) -->

<svg
   xmlns:dc="http://purl.org/dc/elements/1.1/"
   xmlns:cc="http://creativecommons.org/ns#"
   xmlns:rdf="http://www.w3.org/1999/02/22-rdf-syntax-ns#"
   xmlns:svg="http://www.w3.org/2000/svg"
   xmlns="http://www.w3.org/2000/svg"
   xmlns:sodipodi="http://sodipodi.sourceforge.net/DTD/sodipodi-0.dtd"
   xmlns:inkscape="http://www.inkscape.org/namespaces/inkscape"
   width="937.5"
   height="937.5"
   viewBox="0 0 750.00003 750"
   id="svg3915"
   version="1.1"
   inkscape:version="0.48.4 r9939"
   sodipodi:docname="catedral.cdr"
   style="fill-rule:evenodd">
  <metadata
     id="metadata3927">
    <rdf:RDF>
      <cc:Work
         rdf:about="">
        <dc:format>image/svg+xml</dc:format>
        <dc:type
           rdf:resource="http://purl.org/dc/dcmitype/StillImage" />
        <dc:title></dc:title>
      </cc:Work>
    </rdf:RDF>
  </metadata>
  <defs
     id="defs3925" />
  <sodipodi:namedview
     pagecolor="#ffffff"
     bordercolor="#666666"
     borderopacity="1"
     objecttolerance="10"
     gridtolerance="10"
     guidetolerance="10"
     inkscape:pageopacity="0"
     inkscape:pageshadow="2"
     inkscape:window-width="640"
     inkscape:window-height="480"
     id="namedview3923"
     showgrid="false"
     units="pt"
     inkscape:document-units="pt"
     inkscape:zoom="0.22425732"
     inkscape:cx="372.04749"
     inkscape:cy="526.18127"
     inkscape:window-x="0"
     inkscape:window-y="0"
     inkscape:window-maximized="0"
     inkscape:current-layer="svg3915" />
  <g
     id="g3917"
     transform="translate(0,-91.889992)">
    <g
       id="g3919">
      <path
         style="fill:#2c2c2b;stroke:none"
         d="m 25.198,721.084 699.603,0 0,26.078 -699.603,0 0,-26.078 z m 67.0043,-47.904 579.3577,0 0,26.077 -579.3577,0 0,-26.077 z m 260.1457,-254.537 0,-111.819 -110.161,0 0.008,-22.181 110.153,-0.203 0,-97.822 23.059,0.082 -0.475,97.74 116.265,0 -0.01,22.419 -116.255,-0.035 0,112.353 c 72.66,6.687 129.302,60.839 129.302,126.652 0,70.334 -64.688,127.351 -144.484,127.351 -79.797,0 -144.485,-57.017 -144.485,-127.351 0,-68.146 60.726,-123.79 137.083,-127.186 z m 7.402,25.445 c 63.75,0 115.431,45.551 115.431,101.74 0,56.192 -51.681,101.743 -115.431,101.743 -63.75,0 -115.431,-45.551 -115.431,-101.743 0,-56.189 51.681,-101.74 115.431,-101.74 z"
         id="path3921"
         inkscape:connector-curvature="0" />
    </g>
  </g>
</svg>
