<?xml version="1.0" encoding="UTF-8" standalone="no"?>
<!-- Created with sK1/UniConvertor (http://sk1project.org/) -->

<svg
   xmlns:dc="http://purl.org/dc/elements/1.1/"
   xmlns:cc="http://creativecommons.org/ns#"
   xmlns:rdf="http://www.w3.org/1999/02/22-rdf-syntax-ns#"
   xmlns:svg="http://www.w3.org/2000/svg"
   xmlns="http://www.w3.org/2000/svg"
   xmlns:sodipodi="http://sodipodi.sourceforge.net/DTD/sodipodi-0.dtd"
   xmlns:inkscape="http://www.inkscape.org/namespaces/inkscape"
   width="937.5"
   height="937.5"
   viewBox="0 0 750.00003 750"
   id="svg4251"
   version="1.1"
   inkscape:version="0.48.4 r9939"
   sodipodi:docname="central hidroelectrica.cdr"
   style="fill-rule:evenodd">
  <metadata
     id="metadata4263">
    <rdf:RDF>
      <cc:Work
         rdf:about="">
        <dc:format>image/svg+xml</dc:format>
        <dc:type
           rdf:resource="http://purl.org/dc/dcmitype/StillImage" />
        <dc:title></dc:title>
      </cc:Work>
    </rdf:RDF>
  </metadata>
  <defs
     id="defs4261" />
  <sodipodi:namedview
     pagecolor="#ffffff"
     bordercolor="#666666"
     borderopacity="1"
     objecttolerance="10"
     gridtolerance="10"
     guidetolerance="10"
     inkscape:pageopacity="0"
     inkscape:pageshadow="2"
     inkscape:window-width="640"
     inkscape:window-height="480"
     id="namedview4259"
     showgrid="false"
     units="pt"
     inkscape:document-units="pt"
     inkscape:zoom="0.22425732"
     inkscape:cx="372.04749"
     inkscape:cy="526.18127"
     inkscape:window-x="0"
     inkscape:window-y="0"
     inkscape:window-maximized="0"
     inkscape:current-layer="svg4251" />
  <g
     id="g4253"
     transform="translate(0,-91.889992)">
    <g
       id="g4255">
      <path
         style="fill:#2c2c2b;stroke:none"
         d="m 394.081,330.943 c 45.26,5.398 84.391,32.141 108.165,70.463 l 129.024,-73.256 5.276,25.389 -122.934,69.797 c 8.346,19.673 12.989,41.479 12.989,64.431 0,24.005 -5.085,46.753 -14.165,67.124 l 126.792,74.429 -19.349,17.263 -119.201,-69.972 c -23.61,36.54 -61.38,62.066 -104.971,67.775 l 0,182.389 -38.173,0 0,-182.527 c -44.886,-6.204 -83.502,-33.434 -106.699,-72.017 l 0.265,1.273 -132.213,75.066 -5.276,-25.389 126.632,-71.898 c -8.101,-19.434 -12.6,-40.92 -12.6,-63.516 0,-22.459 4.452,-43.816 12.461,-63.157 l -123.032,-72.221 19.35,-17.263 114.862,67.425 c 23.701,-38.939 63.17,-66.159 108.885,-71.608 l -4.256,0 0,-176.542 -139.709,0 0,15.799 -158.7957,-31.598 158.7957,-31.597 0,15.799 317.592,0 0,-15.799 158.795,31.597 -158.795,31.598 0,-15.799 -139.71,0 0,176.542 -0.005,0 z m -126.998,80.883 0.454,0.266 -1.369,1.222 c -12.977,21.514 -20.499,47.056 -20.499,74.453 0,76.655 58.854,138.796 131.453,138.796 72.599,0 131.452,-62.141 131.452,-138.796 0,-76.655 -58.853,-138.796 -131.452,-138.796 -46.049,0 -86.561,25.007 -110.039,62.855 z"
         id="path4257"
         inkscape:connector-curvature="0" />
    </g>
  </g>
</svg>
