<?xml version="1.0" encoding="UTF-8" standalone="no"?>
<!-- Created with sK1/UniConvertor (http://sk1project.org/) -->

<svg
   xmlns:dc="http://purl.org/dc/elements/1.1/"
   xmlns:cc="http://creativecommons.org/ns#"
   xmlns:rdf="http://www.w3.org/1999/02/22-rdf-syntax-ns#"
   xmlns:svg="http://www.w3.org/2000/svg"
   xmlns="http://www.w3.org/2000/svg"
   xmlns:sodipodi="http://sodipodi.sourceforge.net/DTD/sodipodi-0.dtd"
   xmlns:inkscape="http://www.inkscape.org/namespaces/inkscape"
   width="937.5"
   height="937.5"
   viewBox="0 0 750.00003 750"
   id="svg3027"
   version="1.1"
   inkscape:version="0.48.4 r9939"
   sodipodi:docname="comisaria.cdr"
   style="fill-rule:evenodd">
  <metadata
     id="metadata3039">
    <rdf:RDF>
      <cc:Work
         rdf:about="">
        <dc:format>image/svg+xml</dc:format>
        <dc:type
           rdf:resource="http://purl.org/dc/dcmitype/StillImage" />
        <dc:title></dc:title>
      </cc:Work>
    </rdf:RDF>
  </metadata>
  <defs
     id="defs3037" />
  <sodipodi:namedview
     pagecolor="#ffffff"
     bordercolor="#666666"
     borderopacity="1"
     objecttolerance="10"
     gridtolerance="10"
     guidetolerance="10"
     inkscape:pageopacity="0"
     inkscape:pageshadow="2"
     inkscape:window-width="640"
     inkscape:window-height="480"
     id="namedview3035"
     showgrid="false"
     units="pt"
     inkscape:document-units="pt"
     inkscape:zoom="0.22425732"
     inkscape:cx="294.01213"
     inkscape:cy="526.18127"
     inkscape:window-x="14"
     inkscape:window-y="46"
     inkscape:window-maximized="0"
     inkscape:current-layer="svg3027" />
  <g
     id="g3029"
     transform="translate(0,-91.889992)">
    <g
       id="g3031">
      <path
         style="fill:#2c2c2b;stroke:none"
         d="m 146.794,335.633 459.168,0 0,262.391 -459.168,0 0,-262.391 z m 208.856,404.183 0,-131.224 -219.424,0 0,-120.928 -132.02647,0 0,-40.2 132.02647,0 0,-122.4 219.274,0 0,-131.1 40.2,0 0,131.1 220.831,0 0,122.7 129.269,0 0,40.2 -129.269,0 0,120.628 -220.681,0 0,131.224 -40.2,0 z M 348.695,466.89 375,440.586 401.304,466.89 375,493.194 348.695,466.89 z"
         id="path3033"
         inkscape:connector-curvature="0" />
    </g>
  </g>
</svg>
