<?xml version="1.0" encoding="UTF-8" standalone="no"?>
<!-- Created with sK1/UniConvertor (http://sk1project.org/) -->

<svg
   xmlns:dc="http://purl.org/dc/elements/1.1/"
   xmlns:cc="http://creativecommons.org/ns#"
   xmlns:rdf="http://www.w3.org/1999/02/22-rdf-syntax-ns#"
   xmlns:svg="http://www.w3.org/2000/svg"
   xmlns="http://www.w3.org/2000/svg"
   xmlns:sodipodi="http://sodipodi.sourceforge.net/DTD/sodipodi-0.dtd"
   xmlns:inkscape="http://www.inkscape.org/namespaces/inkscape"
   width="937.5"
   height="937.5"
   viewBox="0 0 750.00003 750"
   id="svg4915"
   version="1.1"
   inkscape:version="0.48.4 r9939"
   sodipodi:docname="comunicacion.cdr"
   style="fill-rule:evenodd">
  <metadata
     id="metadata4927">
    <rdf:RDF>
      <cc:Work
         rdf:about="">
        <dc:format>image/svg+xml</dc:format>
        <dc:type
           rdf:resource="http://purl.org/dc/dcmitype/StillImage" />
        <dc:title></dc:title>
      </cc:Work>
    </rdf:RDF>
  </metadata>
  <defs
     id="defs4925" />
  <sodipodi:namedview
     pagecolor="#ffffff"
     bordercolor="#666666"
     borderopacity="1"
     objecttolerance="10"
     gridtolerance="10"
     guidetolerance="10"
     inkscape:pageopacity="0"
     inkscape:pageshadow="2"
     inkscape:window-width="640"
     inkscape:window-height="480"
     id="namedview4923"
     showgrid="false"
     units="pt"
     inkscape:document-units="pt"
     inkscape:zoom="0.22425732"
     inkscape:cx="372.04749"
     inkscape:cy="526.18127"
     inkscape:window-x="0"
     inkscape:window-y="0"
     inkscape:window-maximized="0"
     inkscape:current-layer="svg4915" />
  <g
     id="g4917"
     transform="translate(0,-91.889992)">
    <g
       id="g4919">
      <path
         style="fill:#2c2c2b;stroke:none"
         d="m 375,225.284 c 17.405,0 34.377,1.852 50.736,5.354 l 0,472.504 c -16.359,3.502 -33.331,5.353 -50.736,5.353 -6.306,0 -12.555,-0.243 -18.739,-0.717 l 0,-481.776 c 6.184,-0.474 12.433,-0.718 18.739,-0.718 z m 80.457,13.74 c 93.876,33.147 161.149,122.643 161.149,227.866 0,105.223 -67.273,194.719 -161.149,227.866 l 0,-455.732 z M 375,205.025 c 144.624,0 261.865,117.241 261.865,261.865 0,144.624 -117.241,261.865 -261.865,261.865 -144.624,0 -261.865,-117.241 -261.865,-261.865 0,-144.624 117.241,-261.865 261.865,-261.865 z"
         id="path4921"
         inkscape:connector-curvature="0" />
    </g>
  </g>
</svg>
