<?xml version="1.0" encoding="UTF-8" standalone="no"?>
<!-- Created with sK1/UniConvertor (http://sk1project.org/) -->

<svg
   xmlns:dc="http://purl.org/dc/elements/1.1/"
   xmlns:cc="http://creativecommons.org/ns#"
   xmlns:rdf="http://www.w3.org/1999/02/22-rdf-syntax-ns#"
   xmlns:svg="http://www.w3.org/2000/svg"
   xmlns="http://www.w3.org/2000/svg"
   xmlns:sodipodi="http://sodipodi.sourceforge.net/DTD/sodipodi-0.dtd"
   xmlns:inkscape="http://www.inkscape.org/namespaces/inkscape"
   width="937.5"
   height="937.5"
   viewBox="0 0 750.00003 750"
   id="svg4125"
   version="1.1"
   inkscape:version="0.48.4 r9939"
   sodipodi:docname="establecimiento militar.cdr"
   style="fill-rule:evenodd">
  <metadata
     id="metadata4137">
    <rdf:RDF>
      <cc:Work
         rdf:about="">
        <dc:format>image/svg+xml</dc:format>
        <dc:type
           rdf:resource="http://purl.org/dc/dcmitype/StillImage" />
        <dc:title></dc:title>
      </cc:Work>
    </rdf:RDF>
  </metadata>
  <defs
     id="defs4135" />
  <sodipodi:namedview
     pagecolor="#ffffff"
     bordercolor="#666666"
     borderopacity="1"
     objecttolerance="10"
     gridtolerance="10"
     guidetolerance="10"
     inkscape:pageopacity="0"
     inkscape:pageshadow="2"
     inkscape:window-width="640"
     inkscape:window-height="480"
     id="namedview4133"
     showgrid="false"
     units="pt"
     inkscape:document-units="pt"
     inkscape:zoom="0.22425732"
     inkscape:cx="372.04749"
     inkscape:cy="526.18127"
     inkscape:window-x="0"
     inkscape:window-y="0"
     inkscape:window-maximized="0"
     inkscape:current-layer="svg4125" />
  <g
     id="g4127"
     transform="translate(0,-91.889992)">
    <g
       id="g4129">
      <path
         style="fill:#2c2c2b;stroke:none"
         d="M 381.943,106.528 706.42,281.769 705.571,642.692 377.688,827.252 43.7351,637.831 43.5796,276.215 381.943,106.528 z M 67.6023,593.539 325.243,465.604 67.4846,320.548 67.6023,593.539 z M 397.279,429.833 675.846,291.506 397.279,141.059 l 0,288.774 z M 682.422,340.228 424.757,468.176 681.781,612.819 682.422,340.228 z M 352.721,503.947 86.4282,636.178 352.721,787.221 l 0,-283.274 z M 67.4728,292.815 l 2.239,-3.978 -2.2402,1.123 0.0012,2.855 z m 21.4688,-13.622 263.7794,148.444 0,-280.727 L 88.9416,279.193 z M 649.575,648.124 397.279,506.142 l 0,283.994 252.296,-142.012 z"
         id="path4131"
         inkscape:connector-curvature="0" />
    </g>
  </g>
</svg>
