<?xml version="1.0" encoding="UTF-8" standalone="no"?>
<!-- Created with sK1/UniConvertor (http://sk1project.org/) -->

<svg
   xmlns:dc="http://purl.org/dc/elements/1.1/"
   xmlns:cc="http://creativecommons.org/ns#"
   xmlns:rdf="http://www.w3.org/1999/02/22-rdf-syntax-ns#"
   xmlns:svg="http://www.w3.org/2000/svg"
   xmlns="http://www.w3.org/2000/svg"
   xmlns:sodipodi="http://sodipodi.sourceforge.net/DTD/sodipodi-0.dtd"
   xmlns:inkscape="http://www.inkscape.org/namespaces/inkscape"
   width="937.5"
   height="937.5"
   viewBox="0 0 750.00003 750"
   id="svg4037"
   version="1.1"
   inkscape:version="0.48.4 r9939"
   sodipodi:docname="estacion de peaje.cdr"
   style="fill-rule:evenodd">
  <metadata
     id="metadata4049">
    <rdf:RDF>
      <cc:Work
         rdf:about="">
        <dc:format>image/svg+xml</dc:format>
        <dc:type
           rdf:resource="http://purl.org/dc/dcmitype/StillImage" />
        <dc:title></dc:title>
      </cc:Work>
    </rdf:RDF>
  </metadata>
  <defs
     id="defs4047" />
  <sodipodi:namedview
     pagecolor="#ffffff"
     bordercolor="#666666"
     borderopacity="1"
     objecttolerance="10"
     gridtolerance="10"
     guidetolerance="10"
     inkscape:pageopacity="0"
     inkscape:pageshadow="2"
     inkscape:window-width="640"
     inkscape:window-height="480"
     id="namedview4045"
     showgrid="false"
     inkscape:document-units="pt"
     units="pt"
     inkscape:zoom="0.22425732"
     inkscape:cx="372.04749"
     inkscape:cy="526.18127"
     inkscape:window-x="0"
     inkscape:window-y="0"
     inkscape:window-maximized="0"
     inkscape:current-layer="svg4037" />
  <g
     id="g4039"
     transform="translate(0,-91.889992)">
    <g
       id="g4041">
      <path
         style="fill:#2c2c2b;stroke:none"
         d="m 23.4072,112.115 703.1858,0 0,709.55 -703.1858,0 0,-709.55 z m 28.9396,526.594 645.3062,0 0,-378.638 -645.3062,0 0,378.638 z m 645.3062,35.001 -645.3062,0 0,118.753 645.3062,0 0,-118.753 z M 52.3468,225.071 l 645.3062,0 0,-83.754 -645.3062,0 0,83.754 z m 66.5142,60.456 108.182,0 0,324.547 -108.182,0 0,-324.547 z m 402.503,0 108.182,0 0,324.547 -108.182,0 0,-324.547 z"
         id="path4043"
         inkscape:connector-curvature="0" />
    </g>
  </g>
</svg>
