<?xml version="1.0" encoding="UTF-8" standalone="no"?>
<!-- Created with sK1/UniConvertor (http://sk1project.org/) -->

<svg
   xmlns:dc="http://purl.org/dc/elements/1.1/"
   xmlns:cc="http://creativecommons.org/ns#"
   xmlns:rdf="http://www.w3.org/1999/02/22-rdf-syntax-ns#"
   xmlns:svg="http://www.w3.org/2000/svg"
   xmlns="http://www.w3.org/2000/svg"
   xmlns:sodipodi="http://sodipodi.sourceforge.net/DTD/sodipodi-0.dtd"
   xmlns:inkscape="http://www.inkscape.org/namespaces/inkscape"
   width="937.5"
   height="937.5"
   viewBox="0 0 750.00003 750"
   id="svg2985"
   version="1.1"
   inkscape:version="0.48.4 r9939"
   sodipodi:docname="horno carbon.cdr"
   style="fill-rule:evenodd">
  <metadata
     id="metadata2997">
    <rdf:RDF>
      <cc:Work
         rdf:about="">
        <dc:format>image/svg+xml</dc:format>
        <dc:type
           rdf:resource="http://purl.org/dc/dcmitype/StillImage" />
        <dc:title></dc:title>
      </cc:Work>
    </rdf:RDF>
  </metadata>
  <defs
     id="defs2995" />
  <sodipodi:namedview
     pagecolor="#ffffff"
     bordercolor="#666666"
     borderopacity="1"
     objecttolerance="10"
     gridtolerance="10"
     guidetolerance="10"
     inkscape:pageopacity="0"
     inkscape:pageshadow="2"
     inkscape:window-width="809"
     inkscape:window-height="639"
     id="namedview2993"
     showgrid="false"
     inkscape:document-units="pt"
     units="pt"
     inkscape:zoom="0.40290297"
     inkscape:cx="372.04749"
     inkscape:cy="526.18127"
     inkscape:window-x="0"
     inkscape:window-y="0"
     inkscape:window-maximized="0"
     inkscape:current-layer="svg2985" />
  <g
     id="g2987"
     transform="translate(0,-91.889992)">
    <g
       id="g2989">
      <path
         style="fill:#2c2c2b;stroke:#2c2c2b;stroke-width:0"
         d="m 164.467,461.377 0,100.058 162.541,0 c -4.347,-7.256 -5.005,-18.241 -5.005,-26.815 0,-25.769 23.727,-46.658 52.997,-46.658 29.269,0 52.997,20.889 52.997,46.658 0,7.821 -2.3,19.547 -6.183,26.815 l 163.654,0 -0.567,-95.697 c -32.345,-28.769 -67.812,-57.392 -105.751,-78.264 -30.076,-16.547 -62.18,-28.267 -96.738,-29.815 -35.83,-1.604 -69.523,7.946 -101.578,23.389 -41.814,20.143 -81.169,50.137 -116.367,80.329 z m 427.803,100.058 92.253,0 0,21.664 -619.0464,0 0,-21.664 92.1884,0 0,-103.179 c 174.079,-150.14 274.681,-137.965 434.02,4.418 l 0.585,98.761 z"
         id="path2991"
         inkscape:connector-curvature="0" />
    </g>
  </g>
</svg>
