<?xml version="1.0" encoding="UTF-8" standalone="no"?>
<!-- Created with sK1/UniConvertor (http://sk1project.org/) -->

<svg
   xmlns:dc="http://purl.org/dc/elements/1.1/"
   xmlns:cc="http://creativecommons.org/ns#"
   xmlns:rdf="http://www.w3.org/1999/02/22-rdf-syntax-ns#"
   xmlns:svg="http://www.w3.org/2000/svg"
   xmlns="http://www.w3.org/2000/svg"
   xmlns:sodipodi="http://sodipodi.sourceforge.net/DTD/sodipodi-0.dtd"
   xmlns:inkscape="http://www.inkscape.org/namespaces/inkscape"
   width="937.5"
   height="937.5"
   viewBox="0 0 750.00003 750"
   id="svg4929"
   version="1.1"
   inkscape:version="0.48.4 r9939"
   sodipodi:docname="informacion.cdr"
   style="fill-rule:evenodd">
  <metadata
     id="metadata4941">
    <rdf:RDF>
      <cc:Work
         rdf:about="">
        <dc:format>image/svg+xml</dc:format>
        <dc:type
           rdf:resource="http://purl.org/dc/dcmitype/StillImage" />
        <dc:title></dc:title>
      </cc:Work>
    </rdf:RDF>
  </metadata>
  <defs
     id="defs4939" />
  <sodipodi:namedview
     pagecolor="#ffffff"
     bordercolor="#666666"
     borderopacity="1"
     objecttolerance="10"
     gridtolerance="10"
     guidetolerance="10"
     inkscape:pageopacity="0"
     inkscape:pageshadow="2"
     inkscape:window-width="640"
     inkscape:window-height="480"
     id="namedview4937"
     showgrid="false"
     units="pt"
     inkscape:document-units="pt"
     inkscape:zoom="0.22425732"
     inkscape:cx="372.04749"
     inkscape:cy="526.18127"
     inkscape:window-x="0"
     inkscape:window-y="0"
     inkscape:window-maximized="0"
     inkscape:current-layer="svg4929" />
  <g
     id="g4931"
     transform="translate(0,-91.889992)">
    <g
       id="g4933">
      <path
         style="fill:#0000ff;stroke:none"
         d="m 371.642,341.556 83.785,-0.311 -1.218,3.852 C 435.662,383.5 309.618,608.071 332.307,633.222 l 80.019,2.369 -2.927,40.663 c -6.397,17.698 -35.155,44.071 -44.781,44.048 L 285.255,720.11 C 227.212,691.482 230.421,674.941 235.881,617.571 l 3.176,-11.736 65.473,-128.724 -44.563,-1.912 111.675,-133.643 z M 453.68,213.478 c 34.909,0 63.208,17.278 63.208,38.592 0,21.313 -28.299,38.591 -63.208,38.591 -34.908,0 -63.207,-17.278 -63.207,-38.591 0,-21.314 28.299,-38.592 63.207,-38.592 z"
         id="path4935"
         inkscape:connector-curvature="0" />
    </g>
  </g>
</svg>
