<?xml version="1.0" encoding="UTF-8" standalone="no"?>
<!-- Created with sK1/UniConvertor (http://sk1project.org/) -->

<svg
   xmlns:dc="http://purl.org/dc/elements/1.1/"
   xmlns:cc="http://creativecommons.org/ns#"
   xmlns:rdf="http://www.w3.org/1999/02/22-rdf-syntax-ns#"
   xmlns:svg="http://www.w3.org/2000/svg"
   xmlns="http://www.w3.org/2000/svg"
   xmlns:sodipodi="http://sodipodi.sourceforge.net/DTD/sodipodi-0.dtd"
   xmlns:inkscape="http://www.inkscape.org/namespaces/inkscape"
   width="937.5"
   height="937.5"
   viewBox="0 0 750.00003 750"
   id="svg2999"
   version="1.1"
   inkscape:version="0.48.4 r9939"
   sodipodi:docname="localidad urbana2.cdr"
   style="fill-rule:evenodd">
  <metadata
     id="metadata3011">
    <rdf:RDF>
      <cc:Work
         rdf:about="">
        <dc:format>image/svg+xml</dc:format>
        <dc:type
           rdf:resource="http://purl.org/dc/dcmitype/StillImage" />
        <dc:title></dc:title>
      </cc:Work>
    </rdf:RDF>
  </metadata>
  <defs
     id="defs3009" />
  <sodipodi:namedview
     pagecolor="#ffffff"
     bordercolor="#666666"
     borderopacity="1"
     objecttolerance="10"
     gridtolerance="10"
     guidetolerance="10"
     inkscape:pageopacity="0"
     inkscape:pageshadow="2"
     inkscape:window-width="640"
     inkscape:window-height="480"
     id="namedview3007"
     showgrid="false"
     inkscape:document-units="pt"
     units="pt"
     inkscape:zoom="0.22425732"
     inkscape:cx="372.04749"
     inkscape:cy="526.18127"
     inkscape:window-x="849"
     inkscape:window-y="339"
     inkscape:window-maximized="0"
     inkscape:current-layer="svg2999" />
  <g
     id="g3001"
     transform="translate(0,-91.889992)">
    <g
       id="g3003">
      <path
         style="fill:#2c2c2b;stroke:none"
         d="m 375,298.959 c 101.315,0 183.446,75.185 183.446,167.931 0,92.746 -82.131,167.932 -183.446,167.932 -101.315,0 -183.447,-75.186 -183.447,-167.932 0,-92.746 82.132,-167.931 183.447,-167.931 z m 0,13.346 c -62.789,0 -124.472,32.03 -153.914,88.698 -10.621,20.441 -16.187,42.841 -16.187,65.887 0,23.047 5.566,45.446 16.187,65.887 29.442,56.668 91.125,88.699 153.914,88.699 62.789,0 124.472,-32.031 153.914,-88.699 10.62,-20.441 16.186,-42.84 16.186,-65.887 0,-23.046 -5.566,-45.446 -16.186,-65.887 C 499.472,344.335 437.789,312.305 375,312.305 z m 0,-160.523 c -124.612,0 -245.809,63.204 -306.2005,174.168 -23.6391,43.434 -36.0665,91.464 -36.0665,140.94 0,49.478 12.428,97.508 36.0683,140.944 C 129.193,718.796 250.389,781.998 375,781.998 c 124.61,0 245.807,-63.203 306.199,-174.166 23.64,-43.435 36.068,-91.465 36.068,-140.942 0,-49.476 -12.427,-97.505 -36.066,-140.939 C 620.81,214.987 499.612,151.782 375,151.782 z m 0,-13.346 c 196.399,0 355.613,147.054 355.613,328.454 0,181.4 -159.214,328.454 -355.613,328.454 C 178.6,795.344 19.387,648.29 19.387,466.89 19.387,285.49 178.6,138.436 375,138.436 z"
         id="path3005"
         inkscape:connector-curvature="0" />
    </g>
  </g>
</svg>
