<?xml version="1.0" encoding="UTF-8" standalone="no"?>
<!-- Created with sK1/UniConvertor (http://sk1project.org/) -->

<svg
   xmlns:dc="http://purl.org/dc/elements/1.1/"
   xmlns:cc="http://creativecommons.org/ns#"
   xmlns:rdf="http://www.w3.org/1999/02/22-rdf-syntax-ns#"
   xmlns:svg="http://www.w3.org/2000/svg"
   xmlns="http://www.w3.org/2000/svg"
   xmlns:sodipodi="http://sodipodi.sourceforge.net/DTD/sodipodi-0.dtd"
   xmlns:inkscape="http://www.inkscape.org/namespaces/inkscape"
   width="937.5"
   height="937.5"
   viewBox="0 0 750.00003 750"
   id="svg2985"
   version="1.1"
   inkscape:version="0.48.4 r9939"
   sodipodi:docname="localidad urbana.cdr"
   style="fill-rule:evenodd">
  <metadata
     id="metadata2997">
    <rdf:RDF>
      <cc:Work
         rdf:about="">
        <dc:format>image/svg+xml</dc:format>
        <dc:type
           rdf:resource="http://purl.org/dc/dcmitype/StillImage" />
        <dc:title></dc:title>
      </cc:Work>
    </rdf:RDF>
  </metadata>
  <defs
     id="defs2995" />
  <sodipodi:namedview
     pagecolor="#ffffff"
     bordercolor="#666666"
     borderopacity="1"
     objecttolerance="10"
     gridtolerance="10"
     guidetolerance="10"
     inkscape:pageopacity="0"
     inkscape:pageshadow="2"
     inkscape:window-width="640"
     inkscape:window-height="480"
     id="namedview2993"
     showgrid="false"
     units="pt"
     inkscape:zoom="0.22425732"
     inkscape:cx="372.04749"
     inkscape:cy="526.18127"
     inkscape:window-x="666"
     inkscape:window-y="276"
     inkscape:window-maximized="0"
     inkscape:current-layer="svg2985" />
  <g
     id="g2987"
     transform="translate(0,-91.889992)">
    <g
       id="g2989">
      <path
         style="fill:#2c2c2b;stroke:none"
         d="m 375,176.64 c 173.555,0 314.25,129.949 314.25,290.25 C 689.25,627.191 548.555,757.14 375,757.14 201.444,757.14 60.7499,627.191 60.7499,466.89 60.7499,306.589 201.444,176.64 375,176.64 z m 0,20.338 c 161.394,0 292.23,120.844 292.23,269.912 C 667.23,615.958 536.394,736.802 375,736.802 213.606,736.802 82.7702,615.958 82.7702,466.89 82.7702,317.822 213.606,196.978 375,196.978 z m 0,131.912 c 83.257,0 150.75,61.785 150.75,138 0,76.215 -67.493,138 -150.75,138 -83.257,0 -150.75,-61.785 -150.75,-138 0,-76.215 67.493,-138 150.75,-138 z"
         id="path2991"
         inkscape:connector-curvature="0" />
    </g>
  </g>
</svg>
