<?xml version="1.0" encoding="UTF-8" standalone="no"?>
<!-- Created with sK1/UniConvertor (http://sk1project.org/) -->

<svg
   xmlns:dc="http://purl.org/dc/elements/1.1/"
   xmlns:cc="http://creativecommons.org/ns#"
   xmlns:rdf="http://www.w3.org/1999/02/22-rdf-syntax-ns#"
   xmlns:svg="http://www.w3.org/2000/svg"
   xmlns="http://www.w3.org/2000/svg"
   xmlns:sodipodi="http://sodipodi.sourceforge.net/DTD/sodipodi-0.dtd"
   xmlns:inkscape="http://www.inkscape.org/namespaces/inkscape"
   width="937.5"
   height="937.5"
   viewBox="0 0 750.00003 750"
   id="svg3851"
   version="1.1"
   inkscape:version="0.48.4 r9939"
   sodipodi:docname="marca para acimut.cdr"
   style="fill-rule:evenodd">
  <metadata
     id="metadata3863">
    <rdf:RDF>
      <cc:Work
         rdf:about="">
        <dc:format>image/svg+xml</dc:format>
        <dc:type
           rdf:resource="http://purl.org/dc/dcmitype/StillImage" />
        <dc:title></dc:title>
      </cc:Work>
    </rdf:RDF>
  </metadata>
  <defs
     id="defs3861" />
  <sodipodi:namedview
     pagecolor="#ffffff"
     bordercolor="#666666"
     borderopacity="1"
     objecttolerance="10"
     gridtolerance="10"
     guidetolerance="10"
     inkscape:pageopacity="0"
     inkscape:pageshadow="2"
     inkscape:window-width="640"
     inkscape:window-height="480"
     id="namedview3859"
     showgrid="false"
     inkscape:document-units="pt"
     units="pt"
     inkscape:zoom="0.22425732"
     inkscape:cx="372.04749"
     inkscape:cy="526.18127"
     inkscape:window-x="31"
     inkscape:window-y="4"
     inkscape:window-maximized="0"
     inkscape:current-layer="svg3851" />
  <g
     id="g3853"
     transform="translate(0,-91.889992)">
    <g
       id="g3855">
      <path
         style="fill:#2c2c2b;stroke:none"
         d="m 375,251.326 c 57.215,0 109.218,22.297 147.808,58.669 L 571.874,264.798 522.3,210.98 720.027,150.762 641.03,339.873 589.422,283.847 540.563,328.853 c 31.212,37.395 50.001,85.519 50.001,138.037 0,119.052 -96.512,215.564 -215.564,215.564 -58.877,0 -112.231,-23.614 -151.135,-61.876 L 47.5201,783.018 29.9727,763.968 206.516,601.346 c -29.46,-36.861 -47.08,-83.599 -47.08,-134.456 0,-119.053 96.511,-215.564 215.564,-215.564 z M 234.629,610.664 356.502,498.401 c 5.425,3.192 11.747,5.025 18.498,5.025 20.178,0 36.536,-16.358 36.536,-36.536 0,-5.682 -1.298,-11.061 -3.612,-15.857 l 121.881,-112.27 c 28.819,34.78 46.144,79.429 46.144,128.127 0,110.981 -89.968,200.949 -200.949,200.949 -54.626,0 -104.15,-21.806 -140.371,-57.175 z M 512.028,319.925 389.088,433.171 c -4.335,-1.814 -9.095,-2.817 -14.088,-2.817 -20.179,0 -36.536,16.357 -36.536,36.536 0,3.936 0.624,7.725 1.776,11.277 L 217.288,591.423 C 190.214,557.188 174.05,513.927 174.05,466.89 c 0,-110.982 89.968,-200.95 200.95,-200.95 52.963,0 101.131,20.499 137.028,53.985 z"
         id="path3857"
         inkscape:connector-curvature="0" />
    </g>
  </g>
</svg>
