<?xml version="1.0" encoding="UTF-8" standalone="no"?>
<!-- Created with sK1/UniConvertor (http://sk1project.org/) -->

<svg
   xmlns:dc="http://purl.org/dc/elements/1.1/"
   xmlns:cc="http://creativecommons.org/ns#"
   xmlns:rdf="http://www.w3.org/1999/02/22-rdf-syntax-ns#"
   xmlns:svg="http://www.w3.org/2000/svg"
   xmlns="http://www.w3.org/2000/svg"
   xmlns:sodipodi="http://sodipodi.sourceforge.net/DTD/sodipodi-0.dtd"
   xmlns:inkscape="http://www.inkscape.org/namespaces/inkscape"
   width="937.5"
   height="937.5"
   viewBox="0 0 750.00003 750"
   id="svg4387"
   version="1.1"
   inkscape:version="0.48.4 r9939"
   sodipodi:docname="marca geodesica provincial.svg"
   style="fill-rule:evenodd">
  <metadata
     id="metadata4399">
    <rdf:RDF>
      <cc:Work
         rdf:about="">
        <dc:format>image/svg+xml</dc:format>
        <dc:type
           rdf:resource="http://purl.org/dc/dcmitype/StillImage" />
        <dc:title></dc:title>
      </cc:Work>
    </rdf:RDF>
  </metadata>
  <defs
     id="defs4397" />
  <sodipodi:namedview
     pagecolor="#ffffff"
     bordercolor="#666666"
     borderopacity="1"
     objecttolerance="10"
     gridtolerance="10"
     guidetolerance="10"
     inkscape:pageopacity="0"
     inkscape:pageshadow="2"
     inkscape:window-width="727"
     inkscape:window-height="480"
     id="namedview4395"
     showgrid="false"
     inkscape:document-units="pt"
     units="pt"
     inkscape:zoom="0.22425732"
     inkscape:cx="372.04749"
     inkscape:cy="526.18127"
     inkscape:window-x="0"
     inkscape:window-y="0"
     inkscape:window-maximized="0"
     inkscape:current-layer="svg4387" />
  <g
     id="g4389"
     transform="translate(0,-91.889992)"
     style="fill:#b21516;fill-opacity:1">
    <g
       id="g4391"
       style="fill:#b21516;fill-opacity:1">
      <path
         style="fill:#b21516;stroke:none;fill-opacity:1"
         d="M 565.353,471.111 731.762,823.603 378.279,659.31 25.1626,823.699 185.513,471.308 18.2375,110.081 375.943,278.319 726.958,118.033 565.353,471.111 z M 543.994,471.237 687.709,157.248 375.822,299.666 58.1964,150.278 206.825,471.237 64.4956,784.024 378.272,637.949 691.406,783.488 543.994,471.237 z M 374.768,447.753 c 11.584,0 20.975,10.818 20.975,24.164 0,13.345 -9.391,24.164 -20.975,24.164 -11.584,0 -20.975,-10.819 -20.975,-24.164 0,-13.346 9.391,-24.164 20.975,-24.164 z"
         id="path4393"
         inkscape:connector-curvature="0" />
    </g>
  </g>
</svg>
